<?xml version="1.0" standalone="no"?>
<!DOCTYPE svg PUBLIC "-//W3C//DTD SVG 20010904//EN"
 "http://www.w3.org/TR/2001/REC-SVG-20010904/DTD/svg10.dtd">
<svg version="1.0" xmlns="http://www.w3.org/2000/svg"
 width="599.000000pt" height="741.000000pt" viewBox="0 0 599.000000 741.000000"
 preserveAspectRatio="xMidYMid meet">

<g transform="translate(0.000000,741.000000) scale(0.100000,-0.100000)"
fill="#000000" stroke="none">
<path d="M2050 7399 c-30 -4 -68 -14 -85 -23 -16 -9 -41 -16 -53 -16 -13 0
-38 -7 -55 -15 -18 -8 -71 -30 -118 -48 -48 -19 -93 -39 -100 -46 -8 -6 -48
-33 -89 -60 -42 -26 -90 -66 -108 -88 -20 -26 -56 -52 -99 -73 -127 -62 -275
-190 -347 -300 -77 -119 -116 -199 -136 -282 -22 -90 -26 -203 -10 -258 6 -19
13 -51 16 -70 7 -41 57 -152 89 -195 13 -16 30 -46 39 -65 9 -19 30 -51 47
-70 45 -53 223 -230 230 -230 3 0 22 -13 40 -30 19 -16 37 -30 41 -30 4 0 15
-8 25 -18 10 -11 38 -30 63 -43 25 -13 59 -33 75 -45 17 -12 62 -38 100 -57
39 -20 105 -55 148 -80 42 -25 119 -59 170 -76 50 -18 119 -43 152 -56 153
-60 224 -87 237 -88 22 -4 78 -29 78 -36 0 -7 9 -3 -265 -112 -127 -50 -252
-108 -318 -146 -60 -35 -111 -63 -114 -63 -9 0 -104 -64 -133 -90 -14 -12 -38
-34 -55 -48 -16 -15 -43 -38 -60 -50 -100 -78 -192 -164 -235 -222 -39 -52
-106 -125 -168 -184 -24 -23 -60 -70 -80 -106 -20 -36 -41 -70 -47 -76 -41
-43 -107 -142 -132 -199 -33 -76 -90 -223 -113 -289 -21 -64 -27 -219 -11
-303 9 -48 0 -56 -18 -17 -6 15 -14 24 -18 20 -7 -7 30 -84 136 -279 95 -174
129 -225 171 -258 16 -13 74 -95 127 -183 52 -87 130 -206 172 -265 42 -58 92
-130 111 -159 19 -28 38 -52 43 -52 4 0 7 -5 7 -10 0 -13 38 -69 63 -91 9 -9
17 -20 17 -25 0 -5 21 -31 45 -58 25 -27 45 -52 45 -55 0 -3 23 -31 50 -61 28
-30 76 -89 107 -130 31 -41 77 -95 102 -120 26 -25 66 -73 90 -108 24 -34 49
-61 55 -60 6 2 25 -7 43 -20 17 -12 35 -22 40 -22 15 -1 71 -54 124 -120 29
-36 58 -70 64 -76 5 -6 43 -56 83 -111 40 -55 83 -106 95 -112 12 -7 37 -35
55 -64 19 -29 47 -70 63 -92 52 -70 101 -142 162 -236 16 -24 48 -63 70 -86
23 -23 49 -50 57 -60 8 -10 31 -30 50 -45 27 -21 30 -26 13 -22 -15 4 -23 2
-23 -6 0 -9 11 -11 37 -7 20 4 42 2 48 -3 22 -18 189 -81 254 -96 37 -8 144
-18 242 -21 l177 -6 98 33 c54 18 127 45 162 61 34 16 66 29 71 29 12 0 211
101 282 142 183 108 472 304 539 367 36 33 68 60 71 61 13 0 238 252 274 305
78 118 155 296 155 359 0 12 3 26 7 30 12 11 31 133 32 195 1 63 8 63 20 0 8
-41 9 -41 10 -11 1 18 -5 45 -13 60 -21 42 -31 96 -16 87 8 -5 7 2 -3 21 -9
16 -23 47 -32 69 -9 22 -21 48 -26 57 -5 10 -9 26 -9 36 0 11 -12 37 -26 58
-15 21 -51 85 -80 142 -29 56 -67 122 -84 146 -16 24 -53 91 -82 148 -28 56
-62 114 -75 128 -31 32 -82 110 -119 180 -16 30 -31 57 -34 60 -4 3 -12 21
-20 40 -7 19 -24 54 -37 78 -18 33 -23 58 -22 105 0 34 -4 74 -10 89 -7 20 -7
28 2 31 8 2 7 10 -4 28 -9 13 -49 96 -89 184 -92 204 -233 476 -272 523 -6 7
-23 36 -38 65 -41 81 -151 273 -207 363 -28 44 -68 113 -88 153 -35 70 -35 72
-13 66 13 -4 26 -13 30 -19 5 -8 8 -7 8 2 0 7 -13 18 -30 23 -17 6 -30 18 -30
26 0 8 -5 11 -10 8 -11 -7 -70 15 -70 26 0 3 -7 14 -15 25 -14 18 -15 18 -9 0
6 -16 4 -17 -12 -8 -11 6 -27 19 -37 30 -29 32 -138 205 -134 215 1 5 30 10
62 12 208 11 241 16 485 81 126 34 168 54 283 136 129 92 159 127 197 233 23
64 59 224 60 266 0 14 3 29 7 33 4 3 7 32 8 64 3 98 3 102 22 95 12 -5 11 -1
-5 15 -20 20 -27 45 -23 79 4 29 -115 295 -151 338 -33 40 -54 55 -75 55 -25
0 -27 4 -23 92 2 69 -17 124 -79 228 -63 106 -84 129 -247 270 -47 42 -163
129 -187 141 -12 7 -24 15 -27 19 -9 13 -92 59 -225 124 -178 87 -200 96 -227
96 -12 0 -43 10 -68 21 -52 23 -168 64 -225 78 -22 6 -82 22 -133 36 -52 14
-98 23 -103 20 -5 -4 -9 -2 -9 3 0 9 -31 15 -205 42 -27 5 -70 12 -94 16 -35
6 -42 4 -36 -6 7 -11 -18 -12 -131 -5 -175 11 -372 12 -444 4z m268 -6 c-10
-2 -26 -2 -35 0 -10 3 -2 5 17 5 19 0 27 -2 18 -5z m297 -18 c114 -6 135 -9
195 -30 24 -8 53 -13 64 -9 12 3 16 2 9 -3 -6 -4 19 -9 57 -10 37 -1 89 -9
116 -18 27 -9 87 -27 134 -40 47 -13 137 -41 200 -64 63 -22 122 -41 131 -41
8 0 40 -12 70 -26 96 -47 158 -78 155 -81 -1 -1 -74 26 -162 62 -191 77 -611
197 -679 194 -20 -1 -13 -3 160 -45 361 -87 623 -185 787 -295 169 -114 416
-349 501 -479 29 -44 35 -62 31 -87 -3 -18 -1 -33 4 -33 5 0 10 -18 10 -40 1
-38 -10 -52 -23 -30 -3 6 -11 10 -17 10 -7 0 -6 -6 2 -15 7 -8 21 -15 31 -15
23 0 23 2 0 -58 -25 -64 -80 -124 -166 -181 -102 -69 -171 -105 -255 -136 -65
-24 -91 -27 -200 -29 -69 0 -154 2 -190 6 -45 5 -56 4 -36 -2 16 -5 85 -12
152 -16 68 -4 121 -10 119 -15 -5 -8 81 16 130 36 17 7 41 16 55 20 44 13 134
62 220 119 46 31 85 56 87 56 2 0 -11 -19 -29 -41 -59 -74 -227 -178 -288
-179 -22 -1 -23 -2 -7 -11 9 -6 27 -7 40 -3 54 17 168 95 233 159 79 78 118
139 152 235 l23 65 -4 -61 c-4 -79 -45 -151 -142 -248 -38 -39 -68 -75 -67
-79 1 -5 -2 -6 -7 -2 -6 3 -28 -6 -51 -21 -63 -42 -195 -84 -325 -104 -66 -10
-123 -16 -127 -14 -3 2 -66 7 -140 10 -73 4 -138 11 -145 16 -7 5 -18 6 -24 2
-13 -7 -91 -7 -155 2 -29 3 -78 13 -204 39 -81 17 -169 40 -192 49 -28 12 -27
12 21 12 27 -1 44 -4 38 -8 -7 -4 2 -8 19 -8 17 0 58 -8 90 -19 33 -10 79 -22
104 -26 25 -3 59 -9 75 -11 32 -5 170 -16 195 -15 13 0 68 6 92 10 13 2 18 39
9 64 -14 36 -63 47 -191 43 -58 -1 -125 1 -150 6 -25 5 -54 11 -65 12 -60 8
-243 71 -320 109 -27 13 -66 29 -85 35 -147 45 -246 85 -394 159 -94 47 -184
94 -199 105 -16 11 -30 18 -33 15 -3 -2 10 -14 28 -25 63 -38 393 -200 433
-212 56 -18 57 -19 37 -41 -18 -19 -19 -19 -73 0 -41 15 -48 20 -29 21 21 2
20 3 -10 12 -19 5 -40 9 -47 10 -7 1 -10 5 -7 10 3 5 -38 28 -90 53 -53 24
-122 61 -153 81 -45 28 -219 166 -297 235 -5 4 2 6 15 3 13 -2 6 4 -17 15 -22
10 -52 33 -66 51 -13 17 -32 32 -41 34 -42 6 -131 123 -174 229 -14 34 -29 91
-33 127 -7 58 -8 60 -9 19 -3 -130 96 -308 235 -418 159 -127 319 -265 316
-274 -1 -5 3 -15 9 -23 17 -21 5 -17 -53 17 -74 44 -135 86 -189 130 -25 21
-48 37 -50 36 -2 -1 2 3 9 10 14 12 -1 29 -17 19 -20 -13 -44 10 -132 125 -66
85 -96 116 -104 109 -7 -5 -15 -7 -18 -3 -4 3 -7 2 -7 -4 0 -17 13 -23 25 -13
8 7 21 -2 44 -31 18 -22 31 -43 28 -46 -3 -2 -18 14 -33 36 -29 45 -30 45 -39
32 -3 -6 23 -41 57 -79 124 -137 256 -240 438 -342 52 -29 114 -66 138 -82 23
-16 47 -26 52 -23 6 4 9 1 8 -6 -2 -6 3 -14 11 -17 9 -3 11 0 6 8 -6 10 -3 11
11 6 10 -5 75 -28 143 -52 78 -28 130 -53 139 -65 8 -12 34 -29 58 -39 24 -11
44 -21 44 -24 0 -6 -54 13 -138 48 -35 15 -68 24 -74 20 -6 -4 -8 -3 -5 3 3 5
-32 28 -79 51 -90 45 -131 58 -51 16 26 -13 47 -27 47 -29 0 -8 -219 104 -277
142 -28 18 -54 33 -57 33 -7 0 -114 73 -203 139 -34 25 -72 54 -86 64 -52 38
-178 175 -210 228 -29 48 -34 70 -28 109 1 3 11 -14 22 -38 14 -27 25 -40 31
-34 6 6 -1 25 -18 52 -16 24 -38 73 -50 109 -17 51 -24 62 -30 47 -4 -12 2
-37 19 -71 22 -45 23 -53 9 -51 -22 4 -49 103 -34 127 6 9 8 35 5 58 -3 23 -2
41 4 41 5 0 8 -13 5 -29 -2 -16 1 -32 9 -36 9 -6 10 -3 5 10 -13 35 14 85 62
116 52 33 73 38 49 11 -19 -20 -23 -47 -7 -37 6 4 8 10 5 15 -9 14 94 86 176
123 106 49 216 88 274 98 l50 8 -55 -3 c-58 -4 -210 -60 -335 -123 -38 -19
-92 -47 -120 -61 -27 -13 -62 -36 -77 -50 -16 -14 -28 -21 -28 -15 0 16 71 77
126 109 27 15 56 33 65 41 25 21 228 103 273 109 22 4 53 13 69 21 15 7 53 18
85 22 55 8 327 6 537 -4z m1268 -392 c20 -13 37 -20 37 -16 0 5 5 1 10 -9 6
-9 31 -29 57 -44 27 -15 53 -33 58 -39 6 -7 21 -20 35 -29 89 -58 236 -206
295 -295 74 -112 93 -176 89 -293 -5 -120 -32 -190 -90 -234 -22 -16 -49 -38
-62 -49 -12 -12 -37 -29 -55 -40 -25 -14 -20 -7 24 36 30 30 70 77 89 104 19
28 37 52 42 53 4 2 8 9 8 15 0 7 7 26 16 42 19 36 14 91 -15 154 -10 24 -17
50 -14 57 5 15 -17 60 -69 137 -21 31 -37 57 -35 57 2 0 -39 42 -92 94 -116
112 -271 243 -363 304 -38 25 -68 47 -68 49 0 5 56 -24 103 -54z m-2483 5 c0
-49 -16 -67 -24 -28 -9 48 -8 60 9 60 10 0 15 -10 15 -32z m-35 -25 c4 -21 7
-42 8 -48 2 -17 -66 -205 -75 -205 -4 0 -8 -10 -8 -22 0 -13 -7 -36 -15 -52
-8 -15 -15 -35 -15 -42 0 -8 -4 -14 -10 -14 -5 0 -10 -5 -10 -11 0 -5 4 -8 8
-5 4 3 7 -16 7 -41 -2 -35 7 -63 42 -131 24 -47 56 -102 71 -121 15 -19 29
-41 32 -47 5 -11 140 -163 186 -208 48 -48 143 -133 174 -156 18 -14 46 -35
61 -47 15 -13 32 -23 38 -23 6 0 11 -4 11 -8 0 -4 15 -16 33 -27 17 -10 34
-22 37 -26 10 -14 234 -126 305 -152 77 -29 286 -94 325 -101 14 -3 68 -17
120 -31 344 -95 637 -127 910 -99 117 12 159 19 240 38 32 7 116 19 130 18 85
-5 105 -13 128 -48 13 -20 21 -38 18 -41 -5 -5 -274 20 -361 33 -26 4 -37 3
-30 -3 6 -6 100 -18 210 -28 178 -16 201 -21 217 -39 23 -29 10 -38 -64 -48
-35 -5 -72 -10 -83 -13 -150 -31 -214 -36 -405 -36 -521 2 -857 46 -1192 155
-59 19 -124 42 -145 51 -21 10 -47 21 -58 25 -157 66 -343 161 -373 191 -15
14 -76 60 -137 101 -92 63 -216 152 -310 223 -47 35 -150 145 -192 202 -60 85
-134 215 -162 288 -30 79 -41 224 -19 269 8 17 21 43 28 58 12 26 199 199 223
207 7 2 14 7 17 11 6 8 62 39 72 40 4 0 10 -17 13 -37z m57 -182 c-5 -12 -8
-8 -13 14 -4 17 -7 44 -7 60 -1 26 1 24 13 -14 7 -24 11 -51 7 -60z m-37 -11
c11 -22 13 -35 6 -48 -9 -15 -11 -14 -12 8 -1 19 -4 15 -16 -20 -9 -30 -13
-70 -10 -120 2 -41 1 -64 -2 -50 -7 23 -8 21 -18 -18 -12 -45 -2 -92 25 -120
17 -19 16 -37 -2 -22 -8 6 -23 31 -32 56 -9 24 -20 41 -24 39 -5 -3 -6 5 -2
17 3 14 1 19 -6 14 -8 -5 -10 -1 -5 10 5 14 8 13 20 -7 8 -13 12 -17 9 -7 -2
9 -2 19 2 23 4 4 8 34 9 68 4 102 8 125 17 124 11 -2 28 53 21 71 -9 24 5 12
20 -18z m62 -52 c-10 -18 -15 -25 -12 -14 3 10 1 24 -5 31 -6 7 -7 20 -4 30 6
15 8 15 22 1 14 -14 14 -19 -1 -48z m45 -20 c44 -93 215 -253 408 -383 63 -42
114 -82 112 -87 -2 -6 4 -8 13 -4 11 4 14 2 9 -6 -5 -8 -2 -9 10 -5 9 4 15 3
12 -1 -3 -5 21 -19 52 -32 31 -13 98 -45 149 -72 51 -27 152 -71 225 -99 73
-27 145 -56 160 -65 34 -18 138 -55 138 -48 0 3 10 -2 22 -10 12 -9 34 -16 48
-16 15 0 35 -7 46 -15 27 -21 18 -19 -103 19 -278 87 -570 210 -745 312 -80
47 -95 60 -55 49 20 -5 20 -5 -3 9 -28 17 -53 21 -30 5 13 -9 13 -10 0 -6 -8
2 -14 9 -13 15 2 6 -20 23 -47 38 -28 15 -50 31 -50 36 0 4 -6 8 -13 8 -63 0
-377 308 -377 369 0 31 14 26 32 -11z m-76 -49 c-13 -19 -15 -20 -24 -3 -6 12
-6 28 1 47 l10 30 14 -27 c12 -23 12 -29 -1 -47z m67 -9 c18 -25 23 -40 15
-40 -12 0 -58 58 -58 73 0 17 17 4 43 -33z m-166 8 c-3 -8 -6 -5 -6 6 -1 11 2
17 5 13 3 -3 4 -12 1 -19z m-342 -70 c1 -35 3 -72 6 -83 25 -89 36 -118 71
-184 52 -99 75 -136 123 -200 22 -30 51 -72 64 -94 14 -23 26 -37 28 -31 2 5
31 -17 66 -50 60 -58 168 -142 234 -182 17 -10 87 -59 154 -108 123 -89 195
-134 259 -162 61 -27 194 -85 225 -99 17 -7 46 -19 65 -28 113 -48 388 -127
500 -142 8 -1 22 -5 30 -8 43 -16 326 -40 555 -47 l80 -2 -55 -10 c-71 -12
-382 5 -595 33 -88 11 -162 23 -165 26 -3 3 13 3 35 0 27 -4 35 -3 25 3 -8 5
-33 10 -55 10 -50 0 -93 14 -270 83 -447 176 -784 375 -997 590 -43 42 -78 74
-78 69 0 -15 227 -230 290 -274 82 -57 492 -298 506 -298 3 0 2 5 -2 12 -5 7
-2 9 7 5 8 -3 75 -31 149 -62 74 -31 175 -74 224 -96 292 -131 1113 -192 1550
-115 83 14 187 37 233 51 46 14 88 23 93 20 6 -4 28 4 49 16 28 16 37 26 34
40 -3 11 -9 19 -14 19 -16 0 -9 18 9 23 16 5 60 30 90 52 8 6 26 22 41 36 14
14 38 34 54 43 15 10 27 25 27 32 0 8 4 14 9 14 5 0 12 9 16 19 3 11 14 23 24
26 10 3 18 13 17 22 0 9 4 18 11 20 24 9 -13 -186 -57 -295 -37 -92 -51 -109
-155 -188 -95 -72 -177 -119 -225 -129 -19 -4 -41 -12 -50 -16 -12 -8 -112
-34 -205 -54 -128 -28 -265 -41 -275 -25 -5 8 -14 8 -35 0 -15 -6 -82 -10
-149 -9 -67 1 -143 -2 -170 -6 -39 -6 -47 -5 -41 5 5 7 4 11 -1 8 -5 -4 -47
-2 -94 3 -47 5 -121 12 -165 15 -44 3 -114 12 -155 21 -41 8 -93 19 -115 23
-117 23 -407 109 -510 151 -69 28 -154 63 -180 73 -16 7 -80 29 -141 49 -65
21 -151 59 -205 90 -52 30 -124 69 -162 87 -37 18 -70 36 -73 41 -3 5 -24 19
-47 30 -76 38 -230 161 -334 266 -98 99 -117 126 -220 310 -30 54 -61 169 -49
181 3 3 6 -1 6 -9 0 -27 71 -164 137 -263 140 -211 407 -433 688 -574 145 -72
453 -192 493 -192 10 0 -21 13 -68 29 -523 178 -898 433 -1114 759 -64 96
-135 239 -136 272 0 12 -2 12 -9 2 -16 -25 -4 186 14 245 23 75 31 83 38 36
24 -143 181 -423 301 -532 48 -44 27 -10 -33 55 -33 34 -73 82 -89 106 -65 94
-150 284 -172 384 -9 38 -7 50 10 84 11 22 21 40 23 40 1 0 2 -28 2 -62z m423
-56 c6 -19 7 -43 3 -55 -8 -21 -8 -21 -14 -2 -3 11 -8 56 -11 100 -3 59 -3 68
3 35 5 -25 13 -60 19 -78z m45 97 c3 -11 3 -28 0 -36 -5 -14 -8 -13 -20 3 -16
22 -17 13 -2 -19 8 -17 8 -30 1 -43 -17 -30 -27 49 -12 86 15 35 26 38 33 9z
m218 -31 l33 -43 -37 34 c-33 31 -46 51 -33 51 2 0 19 -19 37 -42z m-358 0
c-3 -18 -10 -37 -15 -43 -7 -7 -8 -1 -3 15 3 14 9 33 11 43 9 29 14 19 7 -15z
m204 -1 c7 2 40 -25 73 -61 34 -35 96 -91 138 -122 42 -32 103 -77 135 -101
32 -24 63 -41 69 -37 6 4 8 3 4 -4 -8 -13 115 -88 279 -170 127 -63 344 -149
535 -213 63 -21 111 -39 105 -40 -5 -1 6 -5 25 -9 19 -4 115 -29 213 -54 179
-47 328 -65 522 -66 47 0 65 -3 55 -10 -21 -13 84 -2 205 22 225 44 395 123
524 244 l76 71 -2 -61 c-1 -33 -8 -93 -16 -133 -12 -61 -21 -80 -60 -124 -25
-29 -43 -57 -40 -62 4 -6 1 -7 -6 -3 -15 9 -51 -21 -46 -37 5 -15 -83 -86
-155 -125 -67 -36 -113 -47 -137 -33 -15 9 -12 10 12 5 24 -4 27 -3 15 6 -13
10 -12 11 4 6 25 -8 58 3 50 16 -4 7 -2 8 4 4 15 -9 95 32 87 44 -3 5 0 7 8 5
14 -6 112 63 103 72 -8 8 -87 -43 -79 -52 5 -4 3 -5 -4 -1 -15 9 -104 -35 -96
-47 3 -6 1 -7 -6 -3 -6 4 -35 -1 -64 -12 -113 -43 -255 -72 -417 -86 -144 -13
-186 -13 -329 -1 -168 15 -218 25 -261 50 -24 14 -23 15 20 9 25 -3 57 -7 73
-9 15 -3 27 -1 27 3 0 4 -12 8 -27 9 -177 12 -693 127 -818 182 -81 36 -141
60 -163 66 -13 4 -50 22 -83 41 -34 19 -66 31 -72 27 -5 -3 -7 -1 -3 5 3 6
-29 35 -76 68 -115 80 -239 184 -232 195 3 5 -1 9 -9 9 -15 0 -178 164 -219
220 -14 19 -28 48 -32 63 -4 15 -10 26 -15 23 -9 -6 3 71 12 80 3 3 8 -8 12
-25 3 -16 13 -35 21 -42 9 -8 7 4 -7 36 -17 38 -19 54 -12 79 5 17 14 30 19
30 5 -1 25 -4 44 -8 27 -4 31 -3 17 5 -16 9 -47 59 -47 75 0 4 8 0 18 -8 9 -9
22 -13 29 -11z m-32 -45 c-8 -8 -25 10 -25 26 0 13 2 13 14 -4 8 -10 13 -21
11 -22z m-158 6 c-3 -8 -6 -5 -6 6 -1 11 2 17 5 13 3 -3 4 -12 1 -19z m62
-100 c1 -5 -3 -8 -9 -8 -5 0 -10 12 -9 28 0 24 1 25 9 7 5 -11 9 -23 9 -27z
m59 -168 c22 -30 70 -84 106 -120 37 -35 66 -69 66 -74 0 -5 -10 0 -23 12 -13
12 -27 19 -32 15 -4 -5 -5 -3 -2 3 7 11 -126 148 -135 139 -3 -3 -11 2 -19 12
-9 11 -10 14 -1 9 18 -11 15 2 -8 34 -11 15 -16 30 -13 34 4 3 9 3 13 -1 3 -5
25 -33 48 -63z m817 -68 c129 -68 123 -72 -18 -12 -104 45 -132 63 -148 92
l-12 22 29 -19 c16 -11 83 -48 149 -83z m-759 -52 c26 -30 53 -55 59 -55 6 0
42 -27 79 -60 74 -66 105 -84 66 -39 l-25 29 27 -24 c16 -14 26 -27 23 -29 -7
-7 36 -52 48 -52 6 0 2 10 -9 22 -10 12 1 6 26 -13 25 -20 75 -57 112 -83 37
-26 67 -52 65 -57 -3 -14 253 -150 266 -142 6 3 7 1 3 -5 -6 -11 61 -58 70
-49 3 3 -8 13 -25 22 -30 15 -34 35 -8 35 8 0 8 -3 -1 -9 -16 -9 129 -68 263
-106 94 -27 406 -88 413 -80 9 9 -305 78 -318 70 -15 -9 -349 99 -338 110 2 2
62 -14 133 -36 71 -22 227 -60 348 -84 147 -30 227 -51 243 -64 13 -10 46 -24
72 -30 59 -14 211 -31 276 -31 27 0 47 -2 44 -5 -3 -3 -77 -7 -164 -8 -88 -2
-143 0 -124 3 28 5 18 7 -47 14 -45 4 -123 16 -175 27 -51 12 -113 22 -138 24
-25 1 -74 12 -109 24 -35 12 -72 21 -81 21 -10 0 -34 7 -54 15 -20 8 -36 12
-36 9 0 -4 -8 0 -17 9 -10 8 -40 18 -68 22 -27 4 -55 12 -62 17 -7 5 -16 7
-21 4 -5 -3 -18 1 -28 9 -10 8 -25 15 -32 15 -25 0 -239 110 -323 166 -127 83
-273 207 -382 324 -54 58 -105 116 -114 130 -21 32 -4 16 63 -60z m3027 5 c-3
-9 -8 -14 -10 -11 -3 3 -2 9 2 15 9 16 15 13 8 -4z m37 -18 c0 -5 -4 -5 -10
-2 -5 3 -10 14 -10 23 0 15 2 15 10 2 5 -8 10 -19 10 -23z m-16 -47 c-6 -5
-24 21 -24 34 0 6 6 1 14 -10 8 -10 12 -21 10 -24z m-91 -54 c-93 -132 -341
-266 -584 -315 -100 -21 -679 2 -656 25 2 3 58 -1 123 -7 119 -10 445 -9 454
2 3 3 46 13 95 22 96 16 235 62 319 104 55 27 190 124 218 156 10 11 26 38 35
60 16 35 18 37 21 17 2 -13 -8 -40 -25 -64z m137 74 c0 -5 -4 -10 -10 -10 -5
0 -10 5 -10 10 0 6 5 10 10 10 6 0 10 -4 10 -10z m-76 -16 c3 -8 2 -12 -4 -9
-6 3 -10 10 -10 16 0 14 7 11 14 -7z m-2114 -30 l25 -15 -25 7 c-14 3 -29 10
-34 15 -16 14 6 10 34 -7z m197 4 c4 -7 22 -24 38 -38 l30 -25 -29 32 c-51 56
-20 48 51 -13 l68 -58 -50 53 -50 53 40 -17 c83 -33 135 -59 135 -66 0 -3 11
-6 25 -6 28 0 62 -26 62 -46 0 -16 -68 -7 -91 12 -8 7 -20 10 -26 6 -6 -4 -17
-2 -24 4 -8 7 -18 11 -22 9 -15 -4 -74 20 -74 31 0 5 -9 9 -19 8 -23 -1 -91
43 -91 61 0 6 4 12 10 12 5 0 13 -6 17 -12z m2017 -4 c9 -22 -3 -32 -14 -14
-12 19 -12 30 -1 30 5 0 12 -7 15 -16z m-80 -20 c4 -10 1 -14 -6 -12 -15 5
-23 28 -10 28 5 0 13 -7 16 -16z m50 -6 c-3 -4 -9 -8 -15 -8 -5 0 -9 4 -9 8 0
5 7 9 15 9 8 0 12 -4 9 -9z m-38 -25 c-10 -10 -46 -14 -46 -5 0 4 12 9 27 10
14 1 23 -1 19 -5z m118 -63 c-3 -2 -9 2 -13 9 -7 10 -9 11 -13 1 -2 -7 -4 5
-5 26 l-1 39 18 -35 c10 -19 16 -37 14 -40z m-134 12 c0 -15 -2 -15 -10 -2 -7
11 -10 11 -10 2 0 -7 -4 -10 -10 -7 -6 4 -5 11 3 19 15 17 27 11 27 -12z m44
2 c4 -10 1 -14 -6 -12 -15 5 -23 28 -10 28 5 0 13 -7 16 -16z m46 -3 c0 -4 -6
-8 -14 -8 -8 0 -12 6 -9 14 5 13 23 9 23 -6z m-1625 -21 c6 -4 29 -11 53 -15
23 -4 42 -10 42 -15 0 -4 15 -17 33 -29 18 -11 25 -21 17 -21 -34 0 -134 32
-158 50 -20 17 -28 18 -41 8 -14 -11 -14 -11 -4 3 10 12 10 18 0 28 -10 10 -6
11 18 5 17 -4 35 -10 40 -14z m1525 -10 c0 -5 -4 -10 -10 -10 -5 0 -10 5 -10
10 0 6 5 10 10 10 6 0 10 -4 10 -10z m40 0 c0 -5 -4 -10 -10 -10 -5 0 -10 5
-10 10 0 6 5 10 10 10 6 0 10 -4 10 -10z m44 -2 c-7 -11 -34 -10 -34 1 0 6 9
9 19 8 11 0 17 -5 15 -9z m-1819 -8 c-3 -5 2 -10 11 -10 10 0 15 -3 11 -6 -3
-3 -15 -3 -28 1 -17 6 -19 9 -8 16 18 11 22 11 14 -1z m403 -30 c2 -6 18 -21
36 -32 l31 -20 -30 8 c-16 4 -38 7 -47 8 -9 0 -14 4 -12 8 3 4 2 8 -3 8 -4 0
-19 10 -33 21 l-25 20 40 -5 c22 -2 41 -10 43 -16z m1372 -11 c0 -5 -7 -9 -15
-9 -9 0 -15 9 -15 21 0 18 2 19 15 9 8 -7 15 -16 15 -21z m26 -6 c-4 -4 -11
-1 -16 7 -16 25 -11 35 7 17 9 -9 13 -20 9 -24z m24 21 c0 -8 -4 -12 -10 -9
-5 3 -10 10 -10 16 0 5 5 9 10 9 6 0 10 -7 10 -16z m44 0 c3 -8 2 -12 -4 -9
-6 3 -10 10 -10 16 0 14 7 11 14 -7z m36 1 c0 -12 -19 -12 -23 0 -4 9 -1 12 9
8 7 -3 14 -7 14 -8z m-1383 -22 l25 -28 -16 28 -16 27 73 0 c74 0 97 -9 97
-40 0 -15 -14 -17 -97 -18 -98 0 -135 9 -162 42 -12 14 -8 16 28 16 33 0 48
-6 68 -27z m1193 -25 c0 -10 -4 -18 -10 -18 -5 0 -10 15 -10 33 0 24 3 28 10
17 5 -8 10 -23 10 -32z m163 5 c-7 -18 -43 -16 -43 2 0 9 9 14 24 13 15 -1 22
-7 19 -15z m41 2 c3 -8 1 -15 -3 -15 -5 0 -11 7 -15 15 -3 8 -1 15 3 15 5 0
11 -7 15 -15z m-124 -7 c0 -9 4 -8 11 2 9 13 10 13 6 0 -5 -21 -43 -25 -50 -6
-5 11 0 16 13 16 11 0 20 -6 20 -12z m49 -36 c8 -14 6 -18 -10 -19 -10 -1 -19
3 -19 8 0 6 5 7 12 3 8 -5 9 -2 5 9 -8 23 0 22 12 -1z m41 2 c0 -8 4 -13 9 -9
5 3 13 0 16 -6 9 -14 -37 -8 -47 6 -12 16 -9 25 7 25 8 0 15 -7 15 -16z
m-1670 -4 c-8 -5 -19 -10 -25 -10 -5 0 -3 5 5 10 8 5 20 10 25 10 6 0 3 -5 -5
-10z m51 -8 c-7 -2 -18 1 -23 6 -8 8 -4 9 13 5 13 -4 18 -8 10 -11z m1433 3
c3 -8 1 -15 -4 -15 -6 0 -10 7 -10 15 0 8 2 15 4 15 2 0 6 -7 10 -15z m46 3
c0 -10 2 -10 9 0 7 11 9 11 14 0 3 -10 -4 -15 -24 -16 -20 -2 -29 2 -29 13 0
8 7 15 15 15 8 0 15 -6 15 -12z m60 -3 c0 -8 -4 -15 -9 -15 -5 0 -11 7 -15 15
-3 9 0 15 9 15 8 0 15 -7 15 -15z m-1493 -11 c-3 -3 -12 -4 -19 -1 -8 3 -5 6
6 6 11 1 17 -2 13 -5z m124 -19 c47 -8 136 -14 279 -21 80 -3 147 -8 149 -10
9 -9 -202 -3 -314 8 -66 7 -139 12 -162 12 -26 0 -37 4 -30 9 7 5 -5 6 -28 3
-29 -4 -35 -3 -20 4 18 8 55 7 126 -5z m1356 -8 c3 -6 1 -7 -5 -3 -5 3 -12 0
-15 -6 -3 -11 -9 -11 -26 0 -12 7 -21 8 -21 2 0 -5 -4 -10 -10 -10 -5 0 -10 6
-10 13 0 16 77 20 87 4z m80 -1 c3 -5 1 -6 -5 -2 -7 4 -12 2 -12 -4 0 -15 -42
-8 -48 8 -5 15 56 13 65 -2z m58 4 c4 -6 -5 -10 -19 -10 -14 0 -26 5 -26 10 0
6 9 10 19 10 11 0 23 -4 26 -10z m-1522 -17 c-7 -2 -19 -2 -25 0 -7 3 -2 5 12
5 14 0 19 -2 13 -5z m1527 -17 c0 -24 -12 -46 -21 -40 -13 8 -11 -10 3 -24 7
-7 8 -13 3 -13 -47 -7 -51 -5 -50 14 1 11 14 25 31 32 16 8 26 14 22 15 -22 6
-34 5 -41 -5 -5 -6 -7 -4 -4 5 2 8 10 14 16 13 6 -2 11 2 11 7 0 6 7 10 15 10
8 0 15 -6 15 -14z m-192 -8 c18 -15 15 -28 -8 -28 -10 0 -24 8 -29 18 -10 16
-10 15 -11 -3 l-1 -20 -9 20 c-5 11 -9 14 -9 8 -1 -18 -21 -16 -21 1 0 17 68
20 88 4z m42 -1 c0 -8 7 -14 15 -14 9 0 14 5 12 12 -3 6 7 12 24 13 20 2 29
-2 29 -13 0 -18 -11 -19 -29 -2 -11 10 -13 9 -9 -3 7 -19 -26 -24 -54 -9 -22
12 -24 29 -3 29 8 0 15 -6 15 -13z m-120 -36 c0 -5 9 -7 19 -4 13 3 23 -2 31
-17 14 -27 8 -34 -22 -26 -22 5 -55 56 -37 56 5 0 9 -4 9 -9z m98 -27 c-11
-24 -13 -25 -25 -8 -19 26 -16 34 12 34 23 0 24 -2 13 -26z m89 12 c4 -5 1 -6
-6 -2 -8 6 -11 2 -9 -10 4 -27 -21 -24 -40 4 -14 22 -14 22 17 20 18 -1 35 -7
38 -12z m-207 -11 c0 -8 -7 -15 -15 -15 -16 0 -20 12 -8 23 11 12 23 8 23 -8z
m150 -16 c0 -5 -7 -9 -15 -9 -9 0 -12 6 -9 15 6 15 24 11 24 -6z m-166 -22
c-2 -7 -16 -14 -30 -15 -15 -1 -23 2 -19 8 4 6 11 8 16 5 5 -4 9 -1 9 4 0 6 7
11 15 11 8 0 12 -6 9 -13z m40 -2 c4 -10 -1 -15 -14 -15 -13 0 -18 5 -14 15 4
8 10 15 14 15 4 0 10 -7 14 -15z m233 0 c0 -7 -27 -12 -74 -13 -44 -1 -73 3
-73 9 0 6 23 9 60 6 33 -2 60 -1 60 3 0 4 6 7 13 7 8 0 14 -5 14 -12z m-167
-5 c0 -5 -11 -10 -25 -10 -14 0 -25 5 -25 10 0 6 11 10 25 10 14 0 25 -4 25
-10z m192 -42 c-8 -8 -9 -4 -5 13 4 13 8 18 11 10 2 -7 -1 -18 -6 -23z m-330
10 c-9 -9 -15 -9 -24 0 -9 9 -7 12 12 12 19 0 21 -3 12 -12z m93 1 c4 -6 5
-12 3 -15 -8 -7 -68 8 -68 17 0 13 58 11 65 -2z m35 0 c0 -8 4 -8 14 0 10 9
15 8 20 -4 6 -16 -10 -20 -38 -9 -18 7 -22 24 -6 24 6 0 10 -5 10 -11z m100
-4 c0 -9 -9 -15 -24 -15 -13 0 -26 7 -30 15 -4 11 2 15 24 15 20 0 30 -5 30
-15z m60 -1 c0 -14 -3 -14 -15 -4 -8 7 -15 14 -15 16 0 2 7 4 15 4 8 0 15 -7
15 -16z m-35 -4 c3 -5 1 -10 -4 -10 -6 0 -11 5 -11 10 0 6 2 10 4 10 3 0 8 -4
11 -10z m-285 -13 c0 -21 -22 -37 -53 -37 l-28 0 28 25 c31 27 53 32 53 12z
m68 -9 c20 -20 14 -38 -13 -38 -14 0 -25 4 -25 10 0 5 -7 7 -16 3 -14 -5 -13
-3 2 15 21 25 35 27 52 10z m83 -14 c8 -10 8 -14 0 -14 -6 0 -11 5 -11 10 0 6
-8 5 -20 -2 -17 -11 -22 -10 -30 2 -5 8 -10 18 -10 21 0 11 59 -3 71 -17z m67
-1 c6 -19 -33 -16 -49 3 -11 14 -9 15 16 12 16 -1 30 -9 33 -15z m26 2 c-4 -8
-7 -15 -9 -15 -2 0 -5 7 -9 15 -3 9 0 15 9 15 9 0 12 -6 9 -15z m56 -5 c-11
-21 -35 -27 -45 -10 -10 16 4 30 31 30 22 0 23 -3 14 -20z m-390 -30 c0 -5 -2
-10 -4 -10 -3 0 -8 5 -11 10 -3 6 -1 10 4 10 6 0 11 -4 11 -10z m45 0 c-3 -5
-13 -10 -21 -10 -8 0 -14 5 -14 10 0 6 9 10 21 10 11 0 17 -4 14 -10z m65 0
c11 -7 7 -10 -18 -10 -20 0 -31 4 -27 10 8 13 26 13 45 0z m133 3 c-7 -2 -19
-2 -25 0 -7 3 -2 5 12 5 14 0 19 -2 13 -5z m-80 -10 c-7 -2 -19 -2 -25 0 -7 3
-2 5 12 5 14 0 19 -2 13 -5z m147 3 c0 -11 -19 -15 -25 -6 -3 5 1 10 9 10 9 0
16 -2 16 -4z m17 -28 c-21 -14 -28 -9 -15 12 9 13 14 16 20 7 4 -6 2 -15 -5
-19z m43 28 c0 -11 -19 -15 -25 -6 -3 5 1 10 9 10 9 0 16 -2 16 -4z m-369 -16
c5 0 9 -4 9 -10 0 -6 -9 -6 -22 -1 -13 4 -30 6 -38 4 -13 -4 -13 -3 0 6 8 6
21 9 28 6 8 -3 18 -5 23 -5z m198 -3 c9 -11 -7 -14 -87 -15 -67 -1 -92 1 -82
8 8 5 43 9 78 9 34 -1 66 1 69 5 8 8 9 8 22 -7z m79 -4 c6 -20 -55 -16 -62 3
-5 12 1 15 26 12 17 -2 33 -9 36 -15z m-315 -27 c3 -8 3 -17 0 -20 -12 -12
-44 -6 -50 10 -4 11 -8 12 -13 4 -4 -7 -16 -10 -26 -8 -17 4 -16 6 6 16 36 15
77 14 83 -2z m27 10 c0 -3 -4 -8 -10 -11 -5 -3 -10 -1 -10 4 0 6 5 11 10 11 6
0 10 -2 10 -4z m34 -21 c4 -11 -2 -15 -21 -15 -21 0 -24 2 -13 15 7 8 16 15
20 15 4 0 10 -7 14 -15z m114 3 c-3 -8 -23 -13 -53 -13 -30 0 -50 5 -52 13 -4
9 11 12 52 12 41 0 56 -3 53 -12z m96 -3 c4 -12 -3 -15 -29 -15 -33 0 -51 11
-38 24 12 12 61 6 67 -9z m56 5 c8 -5 11 -10 5 -11 -5 0 -18 -2 -27 -4 -9 -2
-19 3 -22 11 -6 16 21 19 44 4z m-565 -10 c13 -6 15 -9 5 -9 -8 0 -22 4 -30 9
-18 12 -2 12 25 0z m119 -16 c25 -24 19 -31 -21 -28 -21 1 -51 3 -68 4 l-30 2
28 10 c21 7 32 6 44 -4 15 -11 16 -11 10 4 -3 9 -1 19 6 22 7 2 13 5 14 5 1 1
9 -6 17 -15z m-2035 -20 c14 -12 -19 -1 -35 12 -18 14 -18 14 6 3 14 -6 27
-13 29 -15z m1888 20 c-3 -3 -12 -4 -19 -1 -8 3 -5 6 6 6 11 1 17 -2 13 -5z
m211 -6 c-3 -7 -13 -13 -23 -13 -10 0 -20 6 -22 13 -3 7 5 12 22 12 17 0 25
-5 23 -12z m72 -13 c0 -8 -9 -15 -19 -15 -24 0 -36 16 -19 23 24 10 38 7 38
-8z m64 0 c4 -11 -2 -15 -24 -15 -20 0 -30 5 -30 15 0 9 9 15 24 15 13 0 26
-7 30 -15z m124 3 c23 -19 12 -28 -34 -28 -40 0 -45 2 -34 15 7 8 8 15 2 15
-5 0 -15 -7 -22 -15 -11 -13 -15 -13 -21 -3 -5 7 -9 16 -9 20 0 11 103 7 118
-4z m70 0 c-2 -6 -12 -16 -21 -22 -13 -8 -20 -7 -27 4 -16 24 -12 30 21 30 19
0 29 -4 27 -12z m27 -8 c-10 -11 -23 -20 -29 -20 -6 1 0 10 13 20 30 26 39 26
16 0z m-890 -11 c-22 -4 -62 -7 -90 -7 l-50 1 60 7 c33 4 74 7 90 7 24 1 22
-1 -10 -8z m130 -4 c-22 -8 -53 -13 -70 -13 -24 0 -19 3 20 13 65 17 101 17
50 0z m-722 -2 c-7 -2 -19 -2 -25 0 -7 3 -2 5 12 5 14 0 19 -2 13 -5z m1100
-40 c8 -21 13 -40 11 -42 -6 -7 -28 16 -47 48 -18 30 -18 31 1 31 14 0 25 -12
35 -37z m60 13 c9 -13 13 -26 10 -30 -15 -15 -44 -3 -58 24 -15 29 -15 30 9
30 14 0 30 -10 39 -24z m51 7 c9 -24 -16 -37 -31 -16 -18 23 -16 33 6 33 10 0
22 -8 25 -17z m46 8 c0 -11 -26 -22 -34 -14 -12 12 -5 23 14 23 11 0 20 -4 20
-9z m-672 -8 c-16 -2 -40 -2 -55 0 -16 2 -3 4 27 4 30 0 43 -2 28 -4z m822 -2
c0 -8 -32 -35 -67 -54 -6 -4 -20 7 -33 26 -12 17 -19 23 -15 12 17 -48 16 -51
-22 -70 -21 -11 -48 -18 -60 -17 -13 2 -33 -3 -45 -9 -18 -10 -24 -8 -40 11
-21 26 -16 39 7 20 10 -8 15 -9 15 -1 0 6 14 11 30 11 17 0 30 -4 30 -10 0 -5
5 -10 11 -10 5 0 7 5 4 10 -4 6 8 10 27 11 28 0 30 1 12 9 -37 15 -38 39 -1
55 36 16 147 20 147 6z m-176 -47 c4 -11 1 -14 -11 -12 -9 2 -18 9 -21 16 -6
18 25 15 32 -4z m-44 -4 c0 -5 -12 -10 -27 -9 -25 0 -26 1 -8 9 27 12 35 12
35 0z m170 -61 c0 -16 -232 -90 -275 -87 -11 0 -60 -6 -110 -15 -192 -33 -427
-52 -455 -37 -15 8 -20 8 -20 -1 0 -9 -45 -10 -187 -5 -301 12 -360 23 -123
22 113 0 321 5 462 12 209 9 266 15 305 31 27 11 71 22 99 26 27 4 59 11 71
16 14 5 25 4 29 -2 3 -6 11 -3 18 7 7 9 17 14 23 11 5 -3 27 -1 49 5 21 6 45
10 53 9 7 -1 11 1 8 6 -3 4 8 8 24 9 16 1 29 -2 29 -7z m-467 -76 c-7 -2 -19
-2 -25 0 -7 3 -2 5 12 5 14 0 19 -2 13 -5z m-1026 -29 c-3 -3 -12 -4 -19 -1
-8 3 -5 6 6 6 11 1 17 -2 13 -5z m646 -1 c-7 -2 -19 -2 -25 0 -7 3 -2 5 12 5
14 0 19 -2 13 -5z m-555 -10 c-10 -2 -26 -2 -35 0 -10 3 -2 5 17 5 19 0 27 -2
18 -5z m-491 -167 c7 -1 16 -5 19 -9 4 -4 17 -7 28 -8 12 -1 -6 -7 -39 -14
-42 -9 -64 -10 -72 -3 -9 7 -32 6 -78 -6 -90 -22 -90 -20 -5 18 71 33 82 34
147 22z m215 -61 c62 -14 129 -30 148 -36 19 -5 82 -15 139 -22 l104 -13 71
-83 c39 -47 78 -86 86 -88 10 -3 8 2 -6 14 -36 32 -124 140 -124 153 0 7 7 10
16 6 9 -3 23 -6 33 -6 9 0 25 -17 36 -37 11 -21 45 -63 75 -93 30 -30 48 -51
39 -48 -21 8 -297 -37 -384 -63 -220 -66 -453 -153 -585 -218 -254 -126 -426
-217 -473 -250 -27 -18 -86 -68 -131 -110 -44 -42 -108 -98 -141 -126 -105
-88 -157 -139 -195 -190 -21 -27 -52 -66 -69 -85 -29 -32 -109 -141 -121 -165
-3 -5 -35 -55 -71 -110 -71 -107 -156 -268 -184 -350 -9 -27 -20 -57 -25 -65
-4 -9 -11 -39 -15 -68 -4 -29 -12 -55 -17 -59 -6 -3 -8 -2 -5 4 4 5 -13 33
-37 61 -52 61 -91 160 -113 290 -18 110 -12 168 38 316 51 153 203 441 278
526 31 35 31 35 25 8 -4 -17 -2 -28 5 -28 6 0 8 6 5 13 -6 18 66 127 85 127 8
0 11 3 8 6 -3 4 8 26 25 50 32 45 45 55 35 30 -3 -8 33 26 80 75 47 48 109
107 139 130 30 23 52 45 49 48 -2 4 1 8 8 8 7 0 76 44 155 97 159 107 274 169
372 200 36 12 66 25 67 30 2 10 142 75 218 101 64 22 216 55 232 50 6 -2 62
-15 125 -30z m-448 -34 c-2 -3 -12 3 -22 13 -16 17 -16 18 5 5 12 -7 20 -15
17 -18z m-250 -121 c-273 -139 -550 -303 -539 -319 4 -7 -114 -116 -126 -116
-11 0 -61 -64 -64 -82 -1 -10 -7 -17 -13 -16 -6 1 -32 -23 -59 -55 -26 -31
-58 -65 -71 -76 -13 -10 -21 -24 -19 -31 3 -6 1 -18 -5 -26 -8 -11 -9 -10 -4
4 4 14 -2 12 -29 -9 -20 -15 -34 -29 -31 -31 2 -2 -22 -41 -55 -86 -32 -45
-57 -88 -54 -94 2 -7 1 -12 -3 -12 -23 4 -34 -7 -67 -63 -20 -35 -33 -53 -30
-40 4 13 1 30 -7 40 -12 16 -11 16 6 2 18 -14 19 -13 12 5 -4 11 -4 16 0 12 4
-4 20 14 35 41 15 26 41 60 58 76 30 29 43 54 19 40 -6 -4 8 21 32 55 55 78
251 303 258 296 7 -7 43 26 37 35 -2 4 17 27 42 51 26 24 41 36 33 26 -8 -11
-15 -29 -17 -40 -3 -19 1 -17 22 10 14 17 41 41 60 53 19 12 33 25 30 30 -3 4
2 13 10 20 8 7 13 16 10 20 -2 4 5 16 18 26 18 16 19 16 8 2 -23 -30 -3 -20
72 36 40 30 111 79 159 109 48 30 84 58 80 62 -4 5 -2 5 5 1 7 -4 34 4 61 18
27 14 52 22 56 19 3 -4 6 -1 6 5 0 5 27 21 59 33 33 13 57 28 54 33 -3 5 -1 6
6 2 17 -11 105 25 89 36 -9 6 -6 7 8 3 25 -7 56 3 48 16 -3 5 2 6 11 2 12 -4
-58 -44 -211 -123z m116 90 c-8 -5 -19 -10 -25 -10 -5 0 -3 5 5 10 8 5 20 10
25 10 6 0 3 -5 -5 -10z m1179 -66 c18 -24 37 -42 41 -39 4 3 7 -3 6 -13 0 -9
5 -16 12 -14 8 1 11 -2 7 -8 -8 -13 14 -42 25 -35 5 3 11 1 14 -4 4 -5 -2 -8
-11 -6 -10 2 -26 4 -35 4 -24 1 -92 64 -130 119 -17 25 -26 42 -20 38 6 -3 13
-2 16 3 11 17 41 -1 75 -45z m19 10 c15 -33 8 -30 -18 6 -14 20 -16 28 -7 24
8 -3 19 -16 25 -30z m168 -10 l14 -39 -30 34 c-16 19 -27 38 -24 43 11 17 27
2 40 -38z m-1486 31 c0 -2 -22 -16 -50 -30 -27 -14 -50 -23 -50 -20 0 2 21 16
48 29 53 28 52 28 52 21z m1350 -5 c0 -5 -7 -10 -15 -10 -8 0 -15 5 -15 10 0
6 7 10 15 10 8 0 15 -4 15 -10z m100 -76 c29 -47 54 -83 57 -81 2 3 -15 36
-39 73 -61 95 -60 94 -50 94 5 0 23 -20 41 -45 18 -25 37 -42 43 -39 6 4 8 2
5 -3 -4 -6 4 -31 18 -55 14 -23 25 -37 25 -30 0 8 5 10 13 6 6 -4 2 4 -10 17
-19 21 -63 120 -63 142 0 4 7 7 16 7 12 0 15 -6 10 -24 -3 -14 -1 -28 6 -32 7
-4 8 -3 4 4 -4 7 -4 12 1 12 7 0 81 -115 91 -142 4 -9 -76 -9 -93 1 -5 3 -23
4 -38 2 -23 -2 -37 6 -71 43 -47 52 -82 106 -67 106 5 0 12 -8 15 -18 4 -10
20 -32 37 -48 31 -28 31 -28 -5 19 -40 54 -45 77 -17 77 12 0 35 -27 71 -86z
m116 50 c2 -14 0 -14 -17 1 -10 10 -16 22 -13 27 8 12 27 -6 30 -28z m38 -7
c28 -41 35 -65 10 -32 -16 21 -51 84 -41 75 3 -3 17 -22 31 -43z m-2 -52 c7 0
13 -7 14 -15 2 -30 4 -32 18 -21 10 8 16 9 21 1 4 -6 1 -9 -6 -8 -6 2 -14 -3
-17 -11 -3 -9 0 -11 8 -6 9 5 11 4 6 -3 -11 -18 3 -35 19 -22 9 7 16 6 26 -7
13 -16 12 -17 -3 -5 -11 9 -18 10 -23 2 -3 -6 -11 -8 -17 -4 -12 8 -78 110
-78 121 0 4 5 1 10 -7 5 -8 15 -15 22 -15z m-1922 -79 c0 -2 -34 -29 -76 -61
-42 -32 -73 -51 -68 -44 12 19 60 60 103 86 38 24 41 25 41 19z m1745 -26 c9
-8 24 -15 32 -16 8 -2 23 -10 33 -19 11 -10 24 -14 31 -9 9 5 7 11 -7 21 -17
13 -16 13 14 11 22 -1 37 -10 44 -23 6 -11 16 -24 22 -28 6 -5 -16 -6 -49 -3
-257 24 -353 27 -451 11 -267 -42 -554 -144 -813 -288 -46 -26 -87 -45 -91
-42 -10 6 -112 -37 -195 -83 -69 -38 -199 -131 -192 -138 3 -3 38 20 78 51 65
48 260 155 284 155 5 0 -14 -15 -42 -32 -28 -18 -85 -57 -127 -85 -49 -35 -81
-51 -93 -47 -12 4 -14 3 -6 -3 8 -6 1 -16 -23 -32 -19 -13 -32 -26 -30 -28 2
-3 52 27 110 66 58 39 107 71 109 71 2 0 35 20 73 45 88 58 299 166 384 195
36 13 70 27 75 31 16 12 434 128 505 141 79 13 423 5 491 -12 l46 -11 58 -132
c146 -329 388 -769 542 -985 25 -35 43 -65 41 -66 -1 -2 -48 3 -103 11 -145
21 -355 6 -410 -28 -12 -8 -186 -60 -395 -119 -262 -74 -373 -119 -568 -231
-160 -91 -382 -262 -382 -294 0 -7 -63 -79 -140 -160 -223 -233 -376 -444
-413 -570 -42 -141 -73 -363 -55 -398 5 -10 8 -37 6 -60 l-3 -42 -59 70 c-154
185 -596 798 -584 811 3 2 43 -44 90 -103 46 -60 154 -189 238 -288 84 -99
185 -219 224 -267 38 -48 72 -86 74 -83 6 6 -114 155 -274 340 -141 164 -313
377 -379 470 -26 36 -51 63 -55 60 -5 -3 -12 0 -16 6 -5 8 -3 9 6 4 8 -5 11
-3 9 4 -3 7 -7 11 -10 9 -3 -2 -13 3 -22 11 -23 19 -21 5 4 -30 11 -16 24 -27
29 -24 5 3 12 0 16 -6 5 -8 3 -9 -6 -4 -8 5 -11 3 -8 -6 3 -8 10 -13 16 -12
11 3 67 -66 59 -73 -3 -3 -15 11 -27 31 -12 20 -25 34 -27 31 -20 -19 575
-838 688 -949 16 -15 29 -36 29 -45 -1 -20 -41 22 -113 119 -42 56 -75 96
-186 224 -135 156 -559 791 -511 765 11 -6 20 -8 20 -4 0 3 7 1 15 -6 8 -7 15
-9 15 -4 -1 12 -39 61 -40 50 0 -12 -30 14 -30 27 0 6 7 2 15 -9 20 -26 19
-14 -5 37 -22 50 -28 121 -8 101 19 -19 28 -14 28 13 0 14 -4 25 -10 25 -5 0
-10 -5 -10 -11 0 -5 -4 -7 -10 -4 -14 9 -13 152 2 161 8 5 9 2 5 -9 -3 -10 -3
-17 2 -17 4 0 13 17 19 39 11 34 15 38 39 35 16 -2 20 -1 11 2 -30 9 -21 45
42 167 34 65 58 122 55 128 -4 5 -2 8 4 7 8 -3 151 204 151 219 0 3 -8 -1 -17
-8 -16 -13 -17 -12 -5 3 8 10 19 16 24 15 6 -1 13 4 16 12 3 9 0 11 -9 6 -8
-5 -11 -4 -6 1 5 5 12 8 15 7 10 -2 32 18 32 29 0 5 -6 6 -12 2 -7 -4 -10 -4
-6 0 3 4 10 8 15 8 12 0 33 19 33 30 0 5 -6 6 -12 2 -7 -4 -10 -4 -6 0 3 4 10
8 15 7 11 0 53 40 53 52 0 5 -8 3 -17 -4 -15 -11 -15 -10 1 8 10 13 22 21 26
18 8 -5 133 122 179 183 18 23 62 63 98 89 44 31 61 49 54 56 -7 7 -33 -9 -83
-53 -40 -35 -57 -47 -39 -27 19 20 30 37 24 37 -6 0 -64 -56 -129 -125 -64
-68 -140 -144 -168 -167 l-51 -43 33 38 c17 21 32 41 32 45 0 14 106 120 175
175 39 30 84 71 101 89 48 51 103 100 169 148 76 57 62 49 370 204 228 115
289 141 492 209 128 43 242 80 253 83 11 2 30 6 43 9 12 3 51 10 87 15 36 5
85 14 110 19 65 14 184 9 205 -9z m255 -46 c14 -35 15 -34 -30 -32 -21 1 -37
5 -34 10 3 4 1 8 -5 8 -6 0 -15 9 -21 20 -10 19 -8 20 35 20 40 0 47 -3 55
-26z m40 -5 c0 -6 -4 -7 -10 -4 -5 3 -10 11 -10 16 0 6 5 7 10 4 6 -3 10 -11
10 -16z m60 -10 c54 -28 58 -38 13 -33 -34 4 -63 25 -63 46 0 12 5 10 50 -13z
m-85 -39 c4 -6 10 -8 14 -6 4 3 6 -7 4 -22 -5 -33 141 -337 157 -327 6 4 7 -1
3 -11 -5 -13 -3 -15 7 -9 9 5 11 4 6 -4 -9 -14 59 -136 190 -343 52 -81 110
-176 130 -212 21 -38 40 -63 46 -59 7 3 8 1 4 -6 -4 -6 16 -54 44 -107 50 -91
51 -96 29 -92 -49 6 -300 414 -487 788 -118 236 -176 364 -162 355 6 -4 10 -2
10 4 0 5 -4 13 -10 16 -5 3 -15 15 -20 26 -9 16 -7 19 9 19 11 0 23 -5 26 -10z
m248 -272 c82 -166 132 -256 139 -252 7 4 8 3 4 -4 -10 -16 32 -94 46 -86 7 4
8 3 4 -4 -10 -16 32 -94 46 -86 7 4 8 3 4 -4 -10 -16 12 -54 26 -46 7 4 8 2 4
-5 -10 -16 42 -103 56 -95 7 4 8 2 4 -4 -10 -16 12 -54 26 -46 7 4 8 3 4 -4
-10 -16 12 -54 26 -46 7 4 8 3 4 -5 -10 -15 33 -83 46 -75 6 4 8 2 4 -4 -3 -6
18 -49 49 -96 30 -47 55 -88 55 -91 0 -15 -30 -1 -45 21 -21 32 -58 70 -66 67
-4 -1 -6 5 -5 15 0 9 -5 16 -12 14 -8 -1 -11 2 -7 8 8 13 -34 82 -45 75 -5 -3
-12 0 -16 6 -4 8 -3 9 4 5 18 -11 15 3 -9 40 -11 19 -25 32 -29 29 -5 -3 -12
0 -16 6 -4 8 -3 9 4 5 18 -11 15 3 -9 40 -11 19 -25 32 -29 29 -5 -3 -12 0
-16 6 -4 8 -3 9 4 5 15 -9 15 -1 1 25 -5 11 -14 17 -19 14 -5 -3 -12 0 -16 6
-4 8 -3 9 4 5 15 -9 15 -1 1 25 -5 11 -14 17 -19 14 -5 -3 -12 0 -16 6 -4 8
-3 9 4 5 15 -9 15 -1 1 25 -5 11 -14 17 -19 14 -5 -3 -12 0 -16 6 -4 8 -3 9 4
5 7 -4 12 -5 12 -2 0 3 -34 67 -75 141 -42 74 -113 207 -159 296 -46 88 -86
157 -88 153 -3 -5 -3 -3 -1 4 1 7 -3 25 -11 40 -7 15 -16 36 -20 48 -5 18 -3
20 21 16 25 -4 40 -28 156 -264z m-1058 252 c-11 -5 -27 -9 -35 -9 -9 0 -8 4
5 9 11 5 27 9 35 9 9 0 8 -4 -5 -9z m1009 -35 c-3 -6 2 -18 11 -25 8 -7 15
-17 15 -22 0 -20 145 -266 154 -261 5 4 6 1 2 -5 -8 -14 22 -71 189 -352 67
-113 126 -217 130 -230 4 -14 22 -52 39 -85 74 -143 57 -126 -57 58 -238 384
-397 670 -492 884 -16 36 -32 60 -38 56 -6 -3 -7 -1 -3 5 9 15 56 -6 50 -23z
m-1079 15 c-11 -5 -27 -9 -35 -9 -9 0 -8 4 5 9 11 5 27 9 35 9 9 0 8 -4 -5 -9z
m955 -25 c0 -5 -5 -3 -10 5 -5 8 -10 20 -10 25 0 6 5 3 10 -5 5 -8 10 -19 10
-25z m-2330 2 c0 -2 -10 -12 -22 -23 l-23 -19 19 23 c18 21 26 27 26 19z
m2346 -98 c14 -28 24 -53 22 -55 -2 -2 -16 21 -31 51 -15 30 -25 55 -22 55 3
0 16 -23 31 -51z m134 -199 c22 -44 38 -80 35 -80 -3 0 -23 36 -45 80 -22 44
-38 80 -35 80 3 0 23 -36 45 -80z m75 -140 c9 -16 13 -30 11 -30 -3 0 -12 14
-21 30 -9 17 -13 30 -11 30 3 0 12 -13 21 -30z m45 -80 c6 -11 8 -20 6 -20 -3
0 -10 9 -16 20 -6 11 -8 20 -6 20 3 0 10 -9 16 -20z m40 -70 c6 -11 8 -20 6
-20 -3 0 -10 9 -16 20 -6 11 -8 20 -6 20 3 0 10 -9 16 -20z m-2510 -115 c-24
-25 -46 -45 -49 -45 -3 0 15 20 39 45 24 25 46 45 49 45 3 0 -15 -20 -39 -45z
m-704 -72 c-24 -49 -58 -128 -75 -177 -17 -48 -36 -95 -42 -105 -20 -32 2 62
31 133 16 38 27 74 23 79 -3 6 -1 7 4 4 6 -4 14 1 18 11 10 27 75 142 81 142
2 0 -16 -39 -40 -87z m-43 15 c-3 -18 -12 -46 -20 -61 -8 -15 -11 -33 -7 -39
5 -7 3 -8 -6 -3 -10 6 -12 4 -7 -9 4 -9 3 -15 -2 -11 -5 3 -17 -17 -26 -45 -9
-27 -20 -52 -25 -55 -4 -3 -11 -26 -15 -52 l-8 -48 -9 33 c-5 19 -7 39 -4 45
2 7 5 1 6 -13 0 -14 10 8 20 48 18 69 93 242 104 242 3 0 3 -15 -1 -32z m498
-191 c-102 -138 -144 -204 -136 -217 3 -6 11 -7 17 -4 6 4 6 -2 -1 -15 -13
-24 -19 -27 -17 -8 0 6 -3 12 -9 12 -5 0 -9 -5 -9 -12 1 -7 -3 -11 -9 -10 -6
1 -50 -76 -99 -172 -48 -95 -88 -171 -88 -168 0 15 56 159 82 212 76 151 192
326 277 417 35 37 65 68 66 68 2 0 -31 -46 -74 -103z m3023 -116 c25 -41 43
-77 41 -80 -8 -7 -19 8 -65 94 -51 96 -40 89 24 -14z m-3060 12 c-53 -83 -67
-103 -71 -103 -3 0 3 12 13 28 53 82 67 102 71 102 3 0 -3 -12 -13 -27z m-597
-25 c-3 -8 -6 -5 -6 6 -1 11 2 17 5 13 3 -3 4 -12 1 -19z m50 -45 c-3 -10 -5
-2 -5 17 0 19 2 27 5 18 2 -10 2 -26 0 -35z m-60 -35 c-2 -13 -4 -3 -4 22 0
25 2 35 4 23 2 -13 2 -33 0 -45z m3827 54 c3 -5 -1 -9 -9 -9 -8 0 -12 4 -9 9
3 4 7 8 9 8 2 0 6 -4 9 -8z m-379 -12 c64 -10 170 -29 195 -35 8 -2 20 -4 26
-4 7 -1 19 -13 29 -27 l17 -27 -33 6 c-19 4 -61 9 -94 12 -33 4 -78 11 -99 15
-119 26 -547 -49 -856 -150 -36 -12 -72 -23 -80 -25 -59 -15 -141 -50 -275
-117 -88 -44 -255 -155 -255 -169 0 -5 -4 -9 -9 -9 -6 0 -40 -21 -78 -47 -97
-66 -139 -104 -218 -197 -27 -33 -59 -69 -70 -80 -11 -12 -42 -48 -70 -81 -27
-33 -55 -64 -61 -70 -7 -5 -29 -35 -49 -65 -21 -30 -53 -76 -71 -101 -19 -26
-34 -50 -34 -54 0 -14 -78 -172 -104 -209 -32 -48 -42 -86 -55 -201 -20 -170
-16 -242 14 -332 32 -96 48 -123 65 -107 13 13 54 -21 86 -71 l19 -30 -35 28
c-19 15 -46 33 -60 39 -14 6 -40 32 -58 57 -17 25 -41 57 -52 71 -13 17 -22
48 -26 95 -7 64 -6 69 9 56 22 -17 22 -7 0 25 -13 20 -16 46 -14 116 3 144 41
301 96 399 56 98 212 295 355 447 74 79 142 156 151 170 39 67 273 238 459
335 143 76 251 119 405 162 72 20 220 64 330 97 110 34 225 67 255 73 67 16
165 18 245 5z m-3391 -295 c2 -22 12 -58 21 -80 16 -37 16 -38 -1 -25 -9 8
-23 29 -31 47 -16 39 -16 46 -2 37 7 -4 10 -1 7 7 -3 8 -9 13 -14 12 -5 -1
-10 11 -11 25 0 15 -7 55 -14 88 -10 51 -10 73 2 125 l13 64 13 -130 c6 -71
14 -148 17 -170z m3691 223 c24 -23 23 -51 -1 -41 -20 7 -49 63 -33 63 6 0 21
-10 34 -22z m-349 -17 c-7 -11 28 -84 36 -76 3 4 8 2 11 -2 3 -5 -3 -10 -14
-10 -11 -1 -23 5 -26 14 -8 21 -53 68 -53 55 0 -6 12 -24 26 -41 l26 -31 -45
0 c-41 0 -48 4 -77 40 -17 22 -30 40 -28 41 1 0 21 2 42 5 22 2 41 6 44 9 9 9
63 5 58 -4z m69 -53 c14 -23 15 -28 3 -28 -21 0 -61 58 -53 77 6 18 7 17 50
-49z m14 52 c9 0 44 -71 38 -76 -10 -11 -34 10 -56 48 -19 34 -20 40 -6 35 9
-4 20 -7 24 -7z m347 0 c8 0 23 -15 34 -32 11 -18 25 -33 32 -33 6 0 13 -6 15
-12 4 -10 -1 -10 -24 0 -40 17 -55 28 -83 61 -20 24 -21 28 -7 23 10 -4 25 -7
33 -7z m-266 -12 c8 1 25 -15 38 -38 22 -39 22 -40 3 -40 -11 0 -33 17 -50 37
-17 21 -31 33 -31 27 0 -7 7 -17 15 -24 16 -13 20 -30 7 -30 -5 0 -16 16 -25
36 -10 19 -13 33 -7 29 5 -3 10 -1 10 5 0 6 5 8 13 3 6 -4 19 -6 27 -5z m-360
-9 c0 -5 14 -24 31 -44 l31 -35 -25 0 c-29 0 -94 69 -76 80 14 9 39 8 39 -1z
m68 -31 c17 -23 30 -44 27 -47 -6 -6 -85 69 -85 81 0 21 29 4 58 -34z m-105
-2 c31 -40 33 -46 13 -46 -12 0 -66 60 -66 74 0 17 29 2 53 -28z m461 3 c25
-42 16 -45 -12 -3 -12 19 -19 34 -14 34 4 0 16 -14 26 -31z m32 9 c5 -13 7
-26 6 -30 -1 -5 3 -8 8 -8 6 0 10 -4 10 -10 0 -22 -17 -8 -39 30 -18 32 -19
40 -7 40 8 0 18 -10 22 -22z m43 -14 c12 -20 25 -34 28 -30 3 3 -2 15 -12 26
-10 11 -16 22 -14 25 7 7 24 -8 49 -45 17 -24 19 -31 6 -21 -14 12 -19 12 -25
2 -6 -9 -17 -2 -39 24 -32 36 -40 55 -23 55 5 0 19 -16 30 -36z m-603 -62 c-7
-6 -76 57 -76 69 0 4 8 9 18 11 11 3 25 -9 40 -35 13 -21 21 -41 18 -45z m28
54 c31 -41 31 -42 7 -49 -14 -3 -23 6 -40 39 -26 55 -6 61 33 10z m-2658 2 c5
-7 3 -8 -6 -3 -10 6 -12 4 -7 -9 4 -9 3 -15 -2 -12 -9 6 -38 -59 -92 -201 -13
-35 -31 -64 -40 -66 -16 -4 -16 -2 -2 32 23 55 133 271 137 271 3 0 8 -5 12
-12z m2568 -21 c32 -41 32 -47 4 -47 -20 0 -68 52 -68 73 0 20 42 3 64 -26z
m-60 -9 c14 -18 23 -34 20 -37 -5 -6 -64 50 -64 61 0 17 20 7 44 -24z m836
-21 c0 -16 -18 3 -23 25 -6 22 -5 22 8 4 8 -11 15 -24 15 -29z m-863 1 l27
-28 -35 0 c-35 0 -87 38 -73 53 14 14 56 1 81 -25z m-85 5 c28 -33 30 -43 9
-43 -11 0 -29 10 -41 22 -11 12 -20 18 -20 13 0 -5 7 -17 17 -27 15 -17 15
-18 -1 -18 -9 0 -20 9 -24 21 -5 11 -11 20 -15 20 -4 -1 -6 2 -4 7 1 4 7 7 14
7 6 0 15 4 19 8 12 12 30 8 46 -10z m724 -95 c178 -355 450 -826 466 -810 13
13 0 35 -14 26 -6 -4 -8 -2 -5 3 4 6 -28 67 -70 135 -133 213 -355 623 -378
697 -5 18 -4 22 6 16 8 -5 5 1 -5 14 -13 14 -22 18 -26 10 -5 -7 -9 -5 -14 6
-5 14 -2 16 16 11 13 -3 38 -6 56 -6 24 0 32 -4 32 -18 0 -28 146 -319 255
-507 191 -330 265 -463 265 -474 0 -7 9 -29 20 -51 24 -46 24 -50 7 -50 -20 0
-50 36 -51 61 -1 13 -8 23 -19 25 -10 1 -16 -3 -14 -9 3 -7 9 -11 15 -10 6 2
9 -3 6 -11 -3 -7 2 -19 11 -26 26 -22 16 -30 -20 -14 -19 7 -47 14 -62 14 -33
0 -21 -17 -168 235 -214 364 -452 816 -440 835 4 6 22 10 41 10 33 0 35 -2 90
-112z m280 89 c3 -23 -3 -21 -17 4 -8 17 -8 20 2 17 7 -2 13 -12 15 -21z
m-346 -158 c97 -197 265 -502 403 -734 108 -182 109 -170 -16 -179 -76 -5
-209 -36 -327 -76 -125 -42 -348 -162 -430 -230 -30 -25 -73 -58 -96 -72 -59
-38 -240 -183 -308 -247 -131 -124 -229 -228 -283 -301 -22 -30 -51 -66 -64
-81 -13 -14 -37 -43 -54 -65 -16 -21 -43 -52 -58 -69 -33 -35 -64 -75 -67 -90
-1 -5 -6 -20 -11 -33 -5 -13 -9 -27 -9 -31 0 -5 -16 -40 -35 -78 -19 -39 -42
-103 -50 -144 -9 -41 -19 -90 -23 -109 l-7 -34 -47 54 c-85 100 -402 484 -452
547 -27 35 -53 60 -59 56 -5 -3 -7 -2 -4 4 7 12 -40 80 -51 73 -4 -3 -6 -9 -4
-15 5 -19 -79 81 -125 150 -39 56 -61 105 -48 105 1 0 37 -54 80 -120 51 -79
82 -117 88 -111 7 7 -5 29 -32 65 -24 30 -44 61 -45 69 -1 8 -23 40 -49 71
-27 30 -47 61 -46 68 1 7 -1 30 -5 50 -5 20 -4 43 0 50 9 13 10 18 13 53 1 17
3 18 11 5 11 -17 13 -10 4 14 -3 9 -11 13 -16 10 -6 -4 -6 1 1 13 6 11 8 23 4
26 -3 4 0 13 7 22 7 8 9 15 6 15 -4 0 -2 10 5 21 9 18 13 19 21 8 7 -10 8 -9
3 6 -8 24 -8 24 -6 53 0 13 5 20 11 17 5 -3 7 0 4 9 -6 15 21 76 34 76 5 0 8
15 9 33 1 40 42 139 54 131 5 -3 9 1 9 8 0 36 77 157 136 215 18 18 28 35 23
40 -5 5 -11 31 -14 58 l-5 50 15 -40 c9 -22 13 -45 11 -51 -3 -7 3 -10 15 -7
24 7 24 9 -1 40 -21 27 -27 68 -10 78 5 3 16 -8 25 -24 9 -19 11 -32 5 -36 -6
-3 -10 -10 -10 -14 0 -5 46 37 103 93 129 128 242 220 261 213 9 -4 13 -1 10
6 -2 7 13 21 33 32 21 11 64 37 95 57 37 25 63 36 74 31 11 -4 15 -3 10 5 -4
6 28 33 78 65 112 73 123 79 160 79 l32 0 -38 38 c-45 44 -52 77 -8 35 16 -15
27 -32 24 -37 -9 -14 9 -9 64 19 37 19 56 23 63 16 8 -8 17 -5 31 9 12 12 26
17 36 13 9 -3 2 9 -15 27 -36 37 -46 62 -13 33 11 -10 23 -15 26 -12 4 4 -1 9
-10 13 -20 8 -21 20 -2 27 7 3 25 -7 40 -22 26 -27 26 -27 3 -26 -12 0 -23 -4
-24 -10 -2 -5 15 -10 37 -10 22 0 40 4 40 9 0 4 7 6 15 2 8 -3 15 -2 15 2 0
16 251 62 358 66 17 1 32 4 32 8 0 7 35 10 190 16 l65 2 85 -171z m-745 134
c24 -19 30 -30 22 -35 -19 -12 -30 -9 -23 7 6 18 2 19 -26 4 -13 -7 -18 -7
-14 -1 4 6 -2 15 -11 21 -16 9 -16 12 -3 21 20 13 16 14 55 -17z m967 4 c4 -6
2 -15 -5 -19 -7 -4 -17 2 -24 15 -7 12 -12 18 -13 13 0 -21 306 -577 456 -827
44 -74 61 -112 57 -127 -3 -13 5 -38 21 -66 17 -29 22 -47 15 -51 -6 -4 -11
-5 -12 -4 -14 22 -41 87 -42 97 0 7 -5 16 -11 20 -5 4 -35 52 -66 107 -31 55
-113 199 -183 320 -118 206 -255 470 -270 523 -6 22 -5 23 31 17 21 -3 41 -11
46 -18z m166 -221 c54 -108 98 -196 96 -196 -7 0 -161 268 -188 327 -16 34
-33 60 -38 57 -4 -3 -5 3 -1 12 4 12 3 15 -5 10 -8 -4 -10 -2 -6 8 11 27 40
-17 142 -218z m6 219 c-4 -8 -9 -15 -13 -15 -4 0 -8 7 -8 15 0 8 6 15 13 15 8
0 11 -6 8 -15z m-84 -23 c0 -15 -2 -15 -10 -2 -13 20 -13 33 0 25 6 -3 10 -14
10 -23z m-3753 -24 c-3 -8 -6 -5 -6 6 -1 11 2 17 5 13 3 -3 4 -12 1 -19z
m2557 3 c25 -28 3 -34 -30 -9 l-29 21 22 -23 22 -23 -27 -14 c-24 -13 -28 -12
-44 7 -24 30 -23 37 10 48 41 15 57 14 76 -7z m1121 1 c-7 -8 15 -43 24 -37 5
2 8 -3 7 -13 0 -9 4 -16 11 -15 8 2 10 -4 6 -14 -5 -12 -3 -14 7 -8 9 5 11 4
6 -4 -4 -6 3 -26 16 -44 13 -17 50 -80 84 -139 33 -59 65 -104 69 -100 5 4 5
1 1 -6 -7 -12 61 -137 213 -391 60 -100 58 -144 -2 -49 -146 230 -470 825
-450 825 7 0 11 -2 8 -5z m163 -132 c58 -114 134 -246 262 -452 31 -51 110
-202 106 -205 -1 -1 -22 31 -46 72 -24 41 -47 72 -51 70 -4 -3 -6 3 -5 13 0 9
-5 16 -12 14 -8 -1 -11 2 -7 8 8 13 -13 52 -25 45 -5 -3 -12 0 -16 6 -5 8 -3
9 6 4 8 -5 11 -3 8 6 -3 8 -10 13 -16 12 -7 -2 -9 4 -5 14 5 12 3 14 -7 8 -8
-5 -11 -4 -7 2 4 6 -28 69 -70 140 -74 124 -183 340 -183 363 0 6 -5 8 -12 4
-7 -5 -8 -3 -4 5 5 7 9 11 11 9 2 -2 34 -64 73 -138z m-1403 109 c-4 -5 1 -19
11 -30 9 -10 15 -20 13 -20 -26 -9 -52 -2 -70 17 -13 13 -18 24 -12 24 6 0 14
-7 17 -16 3 -8 11 -12 17 -9 8 5 8 10 0 18 -17 17 -13 27 10 27 12 0 17 -4 14
-11z m-2395 -98 c0 -2 -7 2 -15 9 -8 7 -15 21 -15 32 0 10 -4 17 -9 14 -4 -3
-6 6 -3 21 4 23 7 21 23 -23 11 -27 19 -51 19 -53z m2296 70 c-3 -5 1 -14 10
-22 8 -7 20 -22 26 -33 7 -15 1 -12 -22 10 -27 27 -34 54 -14 54 3 0 3 -4 0
-9z m-3 -47 c21 -25 25 -34 14 -34 -14 0 -57 49 -57 64 0 14 17 2 43 -30z
m-19 -26 c11 -18 15 -30 11 -25 -5 4 -17 0 -27 -10 -17 -15 -20 -15 -48 12
-37 35 -37 40 -2 58 31 16 40 11 66 -35z m-80 -23 c25 -33 27 -55 6 -55 -13 0
-60 72 -54 82 9 15 21 8 48 -27z m-38 -25 c36 -54 24 -62 -20 -14 -20 22 -36
35 -36 29 0 -5 14 -24 31 -41 l31 -32 -32 -17 c-32 -17 -32 -17 -66 16 -19 18
-34 37 -34 41 0 17 26 7 57 -24 18 -17 35 -29 38 -27 2 3 -11 20 -30 39 l-35
34 28 17 c37 24 38 24 68 -21z m-2121 -29 c-2 -5 4 -16 15 -26 11 -10 20 -15
20 -10 0 4 7 2 15 -5 8 -7 13 -16 10 -20 -3 -5 -1 -11 5 -15 5 -3 10 -16 10
-28 -1 -21 -2 -21 -21 6 -11 15 -25 25 -29 22 -10 -6 -105 113 -97 121 3 3 13
-6 22 -20 10 -14 24 -26 33 -26 12 0 11 5 -6 23 -12 13 -22 27 -22 33 0 5 12
-4 25 -19 14 -16 23 -32 20 -36z m-21 -81 c36 -49 70 -90 76 -90 12 0 27 -36
35 -83 l6 -31 -22 20 c-38 33 -183 274 -165 274 2 0 34 -40 70 -90z m164 25
c-3 -61 -4 -64 -21 -47 -16 17 -16 21 -1 65 9 26 18 47 21 47 2 0 3 -29 1 -65z
m1875 19 c33 -40 29 -58 -6 -28 -42 37 -62 46 -24 11 21 -19 34 -38 29 -41 -5
-3 -24 10 -42 29 -28 29 -31 37 -20 50 19 23 32 19 63 -21z m-54 -38 c27 -28
30 -34 16 -40 -21 -8 -48 7 -68 38 -12 18 -13 26 -4 29 20 9 22 8 56 -27z
m-44 -26 c40 -42 22 -51 -20 -10 -19 19 -35 30 -35 24 0 -5 14 -21 31 -35 l32
-26 -37 -23 -37 -22 -27 23 c-15 13 -29 25 -31 26 -2 1 -1 9 3 18 5 14 12 12
49 -16 l42 -33 -29 32 c-29 31 -29 32 -11 52 24 27 36 25 70 -10z m-1778 -88
c1 -26 5 -67 9 -91 4 -31 3 -42 -5 -37 -6 4 -11 16 -11 27 0 10 -4 19 -8 19
-4 0 -9 35 -11 78 -2 63 0 75 11 64 7 -7 14 -34 15 -60z m1665 21 c31 -29 35
-43 15 -43 -17 0 -69 54 -60 63 10 11 15 9 45 -20z m-28 -32 c37 -39 15 -53
-25 -15 -16 15 -29 31 -29 36 0 17 28 7 54 -21z m-13 -54 c-8 -8 -20 -2 -41
18 -39 38 -28 52 16 19 24 -19 32 -30 25 -37z m-49 16 c31 -30 35 -43 14 -43
-23 0 -70 45 -62 58 10 17 17 15 48 -15z m2178 -16 c4 1 7 -3 6 -10 -2 -18
126 -237 136 -231 4 3 5 -3 1 -12 -4 -11 -2 -15 4 -11 10 6 93 -111 93 -131 0
-19 20 -65 26 -59 3 3 0 16 -6 29 -11 22 -11 22 9 -2 21 -26 28 -45 12 -36 -5
4 -11 0 -14 -6 -3 -12 -54 58 -86 121 -10 18 -10 22 -1 16 8 -5 11 -3 8 6 -3
8 -10 13 -16 12 -9 -2 -168 256 -201 327 -12 24 -12 24 4 5 9 -11 20 -19 25
-18z m-2204 -17 c33 -29 34 -41 1 -36 -19 2 -59 50 -50 60 10 10 13 8 49 -24z
m-27 -76 l-21 -23 -29 21 c-30 22 -34 30 -22 41 4 4 19 -5 35 -20 15 -15 28
-22 28 -17 0 6 -11 21 -25 34 -19 17 -22 26 -13 31 8 5 23 -2 40 -18 l28 -27
-21 -22z m-58 -10 c24 -25 24 -26 5 -40 -26 -18 -36 -18 -52 4 -23 29 -15 37
12 11 25 -23 26 -23 15 -2 -6 12 -16 25 -21 28 -11 7 -4 25 9 25 4 0 18 -12
32 -26z m-41 -78 c-13 -13 -55 27 -45 44 5 8 14 5 31 -11 17 -16 21 -26 14
-33z m-37 1 c12 -18 12 -26 3 -39 -11 -15 -14 -13 -28 17 -22 48 -3 65 25 22z
m-100 -175 c-28 -38 -40 -37 -53 3 -14 41 -6 61 9 22 5 -14 15 -28 21 -32 9
-6 9 -2 1 13 -16 31 -13 41 4 12 8 -14 14 -20 14 -15 0 16 -28 61 -29 46 0 -8
-3 -11 -6 -8 -4 4 -1 13 6 22 7 8 9 15 6 15 -4 0 -1 6 6 14 11 12 15 8 27 -26
12 -36 12 -42 -6 -66z m-58 -12 c9 -17 13 -36 9 -42 -5 -7 -13 1 -21 23 l-13
34 6 -35 c3 -19 7 -39 8 -44 0 -5 -4 -10 -11 -13 -18 -6 -27 56 -12 83 7 13
14 24 15 24 2 0 11 -14 19 -30z m2805 -35 c0 -11 -14 7 -31 40 -7 13 -3 12 10
-5 11 -14 21 -29 21 -35z m-2843 -74 c-2 -10 -9 -3 -19 19 -9 19 -17 28 -17
20 0 -8 6 -26 13 -39 10 -19 11 -31 3 -48 -14 -32 -22 -29 -40 14 -14 36 -14
39 11 74 l27 37 13 -31 c7 -17 11 -38 9 -46z m2832 -6 c5 2 13 -7 20 -21 6
-14 15 -23 20 -19 5 3 13 0 17 -6 5 -8 3 -9 -6 -4 -8 5 -11 3 -8 -6 3 -8 11
-13 17 -11 7 1 10 -2 6 -8 -4 -6 4 -25 17 -43 42 -56 44 -61 10 -42 -17 10
-29 21 -27 24 1 3 -9 15 -24 25 -14 11 -20 13 -13 6 6 -8 12 -18 12 -24 0 -5
-6 -1 -14 9 -8 11 -12 24 -9 28 3 5 -4 18 -15 30 -32 36 -72 101 -72 117 0 8
13 -2 31 -23 17 -20 34 -35 38 -32z m-84 27 c0 -4 8 -16 18 -28 10 -11 30 -40
45 -65 l26 -44 -24 16 c-27 17 -68 84 -75 120 -2 12 -1 18 3 15 4 -4 7 -11 7
-14z m-2803 -124 c-7 -7 -14 2 -21 28 -17 61 -11 73 11 25 13 -29 16 -47 10
-53z m-29 18 c8 -24 11 -49 7 -56 -9 -14 -39 68 -33 88 7 19 10 15 26 -32z
m-4 -88 c2 -30 -16 -29 -29 2 -12 30 -15 49 -11 80 3 18 39 -57 40 -82z m2674
80 c10 2 34 -2 53 -8 19 -7 51 -12 70 -12 64 0 44 -15 -23 -17 -45 -1 -74 4
-90 14 -12 9 -23 12 -23 7 0 -5 -46 -12 -103 -16 -127 -8 -235 -33 -363 -85
-161 -64 -232 -99 -361 -177 -67 -41 -125 -74 -130 -74 -23 0 105 96 196 146
200 110 226 121 448 188 29 9 101 21 160 27 60 5 113 11 118 13 6 2 15 1 20
-3 6 -3 18 -4 28 -3z m403 -79 c8 -17 13 -33 11 -36 -7 -6 -86 100 -81 109 6
10 51 -38 70 -73z m-96 -24 c14 -18 27 -31 29 -29 2 2 -2 10 -9 19 -16 19 -7
19 32 -1 27 -14 29 -19 24 -47 -4 -21 -3 -27 3 -18 11 17 22 -1 44 -74 24 -74
75 -216 80 -222 10 -9 -12 64 -47 159 -19 54 -31 97 -25 95 7 -1 14 4 17 12 2
8 0 11 -6 7 -6 -3 -14 -1 -18 5 -5 8 -3 9 6 4 10 -6 12 -4 6 10 -5 15 -4 16 9
5 15 -13 17 -63 2 -53 -5 3 -8 0 -5 -8 3 -8 10 -14 18 -14 7 0 20 -11 29 -25
9 -14 11 -21 4 -16 -17 10 -16 0 1 -27 18 -28 29 -181 17 -227 l-10 -35 2 42
c1 23 -2 42 -8 42 -5 0 -9 -15 -7 -34 10 -99 -138 -411 -295 -623 -30 -41 -52
-76 -50 -78 3 -3 27 27 55 66 27 39 52 67 54 63 3 -4 3 -2 2 4 -2 7 2 12 8 10
6 -1 13 4 16 12 3 9 0 11 -8 6 -9 -5 -11 -4 -6 4 4 6 11 9 16 6 10 -6 132 231
172 335 21 54 27 64 23 37 -18 -116 -104 -298 -187 -396 -16 -18 -28 -38 -28
-44 0 -8 -3 -7 -9 1 -6 10 -14 4 -32 -25 -30 -49 -80 -104 -89 -98 -4 2 -22
-11 -40 -30 -19 -19 -30 -35 -24 -35 5 0 -1 -6 -13 -13 -12 -6 -50 -38 -85
-69 -35 -31 -110 -88 -166 -126 -56 -38 -98 -73 -94 -77 4 -5 2 -5 -5 -1 -15
9 -85 -33 -76 -47 3 -6 1 -7 -6 -3 -6 4 -67 -22 -139 -60 -70 -38 -161 -85
-202 -105 -93 -45 -248 -101 -261 -93 -5 3 -9 0 -9 -6 0 -38 259 72 538 227
67 38 49 19 -30 -30 -156 -97 -336 -184 -528 -257 -78 -29 -319 -63 -306 -42
3 6 24 13 47 17 22 4 38 9 36 12 -3 2 -42 -3 -88 -12 -127 -23 -239 -7 -399
60 -64 27 -99 49 -145 93 -33 31 -61 57 -62 58 -2 0 -6 16 -9 35 -6 28 -4 32
7 22 25 -24 33 -13 9 12 -23 25 -24 27 -11 102 27 158 88 302 212 495 38 59
69 110 69 115 -1 13 -145 -212 -184 -286 -43 -82 -90 -222 -106 -317 -8 -44
-17 -71 -25 -71 -15 0 -13 18 12 112 8 33 17 76 19 95 3 19 20 64 38 100 19
36 42 92 52 124 12 39 34 76 64 110 25 28 48 55 52 61 26 37 72 85 76 80 7 -6
32 15 32 27 0 5 -5 6 -12 2 -7 -4 -8 -3 -4 5 4 6 11 9 16 6 11 -7 33 22 26 33
-3 6 1 15 9 22 8 7 15 9 15 5 0 -5 9 0 20 10 28 25 25 43 -2 19 -22 -18 -22
-18 1 8 13 16 31 25 42 23 10 -2 22 1 25 7 4 6 2 8 -4 4 -6 -3 -14 -2 -17 4
-4 6 -1 9 6 8 7 -2 14 2 14 7 4 25 22 51 59 84 23 20 60 55 82 79 23 23 104
92 180 153 139 111 183 142 170 120 -15 -23 18 -9 117 52 111 68 146 88 107
60 -62 -45 -335 -235 -344 -239 -6 -3 18 22 53 55 35 34 59 61 54 61 -5 0 -99
-86 -209 -191 -109 -104 -214 -197 -232 -205 -31 -14 -36 -42 -5 -30 8 3 -12
-24 -45 -62 -71 -80 -159 -201 -214 -295 -39 -68 -82 -176 -73 -185 2 -3 6 1
9 9 30 102 90 209 199 355 84 113 251 298 331 367 61 52 297 224 428 312 48
32 85 62 81 68 -3 5 -2 7 4 4 5 -3 26 5 47 19 20 14 40 22 46 19 5 -3 12 1 17
8 9 15 104 57 208 94 153 53 282 68 478 56 71 -5 130 -6 133 -4 2 2 -2 11 -9
19 -6 9 11 3 38 -12 28 -16 61 -43 75 -61z m-3006 -48 c-3 -18 -12 -40 -19
-50 -11 -16 -14 -13 -24 25 -18 66 -21 87 -11 93 5 3 16 -11 26 -30 9 -20 19
-34 21 -31 2 2 -3 18 -11 35 -9 16 -16 38 -16 48 1 11 9 3 21 -20 15 -28 18
-47 13 -70z m-42 -112 c-4 -15 -9 -10 -24 24 -21 50 -29 87 -20 95 10 10 49
-97 44 -119z m3159 98 c13 -16 12 -17 -3 -4 -17 13 -22 21 -14 21 2 0 10 -8
17 -17z m-3200 -88 c23 -51 27 -69 19 -90 -5 -14 -12 -25 -15 -25 -4 0 -4 4 0
9 6 11 -35 102 -45 96 -3 -2 -5 9 -4 23 1 15 3 33 3 40 2 25 13 11 42 -53z
m-14 -188 c-6 -18 -47 81 -46 110 0 22 6 13 25 -36 14 -35 23 -68 21 -74z m-3
117 c3 -8 2 -12 -4 -9 -6 3 -10 10 -10 16 0 14 7 11 14 -7z m-7 -189 c3 -44 1
-56 -7 -45 -19 28 -40 113 -33 138 l6 25 15 -29 c9 -16 17 -56 19 -89z m-22
-78 c3 -17 10 -25 17 -21 6 4 8 3 4 -4 -3 -5 -1 -13 4 -15 6 -3 5 -4 -2 -3
-20 4 -46 49 -51 91 l-5 40 13 -30 c8 -16 16 -43 20 -58z m1715 79 c0 -2 -12
-12 -27 -21 l-28 -18 19 21 c17 20 36 29 36 18z m1610 -123 c-11 -17 -11 -17
-6 0 3 10 7 26 7 35 1 15 2 15 6 0 2 -10 -1 -25 -7 -35z m-3292 -38 c-3 -3 -9
2 -12 12 -6 14 -5 15 5 6 7 -7 10 -15 7 -18z m251 -330 c5 2 77 -80 162 -182
401 -486 390 -473 387 -498 -3 -22 -11 -13 -63 62 -32 49 -80 111 -105 138
-26 28 -72 83 -104 123 -31 39 -60 72 -65 72 -4 0 -51 63 -106 140 -54 77
-100 138 -103 135 -7 -7 -32 15 -32 29 0 6 5 3 11 -7 6 -9 14 -15 18 -12z
m536 -725 c3 -5 1 -10 -4 -10 -6 0 -11 5 -11 10 0 6 2 10 4 10 3 0 8 -4 11
-10z m65 -17 c0 -19 -3 -24 -10 -17 -6 6 -8 18 -4 27 9 24 14 21 14 -10z m65
-121 c-6 -7 -35 18 -35 31 0 5 9 2 20 -8 11 -10 18 -20 15 -23z"/>
<path d="M2180 7354 c-115 -14 -120 -14 160 2 58 4 143 2 190 -4 47 -6 123
-13 170 -16 76 -4 79 -4 25 4 -230 33 -366 36 -545 14z"/>
<path d="M2338 7140 c-115 -11 -167 -20 -173 -31 -4 -5 -15 -9 -25 -9 -23 0
-114 -44 -157 -77 -18 -13 -49 -48 -69 -78 -20 -30 -40 -52 -45 -49 -5 3 -9 0
-9 -6 0 -6 -11 -26 -25 -44 -32 -42 -33 -61 -1 -21 l23 29 1 -49 c2 -61 68
-202 137 -288 44 -55 180 -166 235 -190 14 -7 27 -15 30 -18 9 -12 173 -89
189 -89 15 0 158 -51 306 -110 62 -25 186 -53 282 -65 18 -2 36 -6 41 -9 41
-25 410 -37 519 -17 28 6 88 15 132 20 87 11 119 24 196 80 27 19 55 36 61 36
7 0 32 18 54 39 l42 40 -4 70 c-3 56 -12 87 -41 148 -31 64 -57 97 -165 206
-118 120 -210 198 -279 237 -15 8 -41 24 -58 33 -35 21 -157 71 -200 82 -16 5
-70 23 -120 40 -105 38 -272 70 -361 70 -34 0 -96 4 -136 10 -103 13 -289 18
-380 10z m336 -30 c19 -8 19 -9 -6 -9 -15 -1 -39 -6 -53 -13 -22 -10 -27 -9
-40 8 -8 10 -15 14 -15 7 0 -6 5 -15 11 -19 11 -6 -23 -33 -43 -34 -15 0 -8
29 10 40 16 11 16 11 0 6 -10 -3 -18 -1 -18 4 0 6 -5 10 -11 10 -5 0 -7 -5 -3
-11 3 -6 0 -15 -7 -20 -18 -12 -32 -11 -24 0 3 5 0 13 -6 16 -7 5 -9 0 -7 -13
3 -19 -36 -72 -53 -72 -4 0 -9 14 -11 31 -4 25 0 35 23 51 16 12 27 24 25 27
-6 9 204 1 228 -9z m-359 -17 c-21 -15 -30 -10 -22 11 4 10 13 13 23 9 15 -6
15 -7 -1 -20z m51 -31 c-14 -14 -16 -14 -22 1 -8 22 3 50 16 42 5 -3 11 0 11
7 1 7 4 2 6 -11 3 -13 -2 -30 -11 -39z m64 55 c0 -2 -9 -12 -20 -22 -19 -18
-20 -17 -20 3 0 15 6 22 20 22 11 0 20 -2 20 -3z m-155 -27 c5 -15 0 -26 -17
-40 -13 -11 -26 -19 -30 -20 -15 0 -8 43 9 62 21 23 30 23 38 -2z m-76 -16
c-20 -22 -25 -23 -27 -9 -4 19 13 35 37 35 10 0 7 -8 -10 -26z m128 -51 c-8
-9 -20 -12 -26 -9 -17 11 -13 47 7 62 15 11 18 9 26 -13 6 -18 4 -29 -7 -40z
m718 51 c128 -21 519 -174 573 -224 12 -11 38 -31 58 -45 38 -26 117 -97 144
-129 8 -10 -24 9 -70 43 -47 33 -115 77 -152 96 -37 20 -71 42 -75 50 -23 39
-555 225 -612 212 -9 -1 13 -9 49 -15 36 -7 90 -20 120 -28 76 -21 245 -87
232 -92 -6 -2 -108 22 -228 53 -119 31 -255 65 -303 75 l-86 19 155 -4 c85 -2
173 -7 195 -11z m-886 -16 c0 -13 -13 -33 -28 -45 l-29 -23 -4 30 c-5 33 0 44
22 53 29 11 40 7 39 -15z m636 -3 c65 -14 185 -43 265 -64 80 -22 195 -51 257
-65 112 -25 185 -54 200 -79 8 -13 34 -27 60 -33 46 -9 284 -184 331 -243 19
-23 38 -38 44 -35 6 4 8 3 5 -3 -4 -6 7 -28 24 -49 44 -55 57 -84 67 -146 l8
-55 -38 -10 c-34 -9 -38 -8 -38 8 0 14 8 19 28 20 l27 1 -30 8 -30 8 29 1 c16
0 27 4 23 7 -3 3 -25 3 -49 -1 -35 -6 -39 -9 -23 -16 16 -6 17 -8 3 -8 -9 -1
-24 9 -34 22 -11 15 -15 16 -11 5 5 -13 1 -18 -11 -19 -14 0 -14 -2 3 -9 19
-8 19 -9 -2 -9 -13 -1 -23 5 -23 12 0 18 -58 95 -102 135 -21 19 -36 38 -33
42 4 7 -156 112 -321 209 -96 57 -280 135 -296 125 -6 -4 -8 -3 -5 4 4 6 -35
28 -100 55 -145 61 -229 87 -272 86 -26 -1 -29 -3 -11 -6 65 -10 125 -28 243
-75 71 -27 126 -52 124 -54 -2 -2 -89 20 -193 50 -228 65 -250 70 -291 67 -18
-1 -33 2 -33 7 0 17 13 21 31 11 23 -12 24 -7 4 32 -9 16 -14 33 -11 37 2 4
-2 13 -10 20 -11 10 -14 10 -14 -1 0 -19 -36 -50 -49 -42 -28 17 -3 42 69 68
29 10 66 7 185 -18z m-288 -32 c-13 -14 -16 -13 -22 7 -9 28 15 47 28 23 6
-10 4 -20 -6 -30z m-299 10 c-2 -14 -8 -28 -14 -30 -16 -5 -24 33 -11 46 19
19 28 12 25 -16z m176 -41 c-4 -10 -6 -21 -5 -25 1 -5 -3 -6 -7 -3 -5 3 -12
20 -16 37 -4 24 -2 35 11 45 16 11 18 10 21 -13 2 -13 0 -32 -4 -41z m-294 8
c-1 -15 -10 -32 -24 -42 -24 -17 -24 -17 -29 15 -3 23 1 38 16 55 23 25 37 15
37 -28z m183 -18 c-22 -16 -37 -11 -41 15 -2 13 6 27 20 37 22 16 23 15 30
-11 6 -21 3 -31 -9 -41z m191 7 c-20 -22 -54 -25 -54 -5 0 8 12 24 27 36 24
19 28 19 36 5 6 -11 3 -22 -9 -36z m-443 27 c-8 -10 -9 -16 -1 -21 13 -8 13
-72 0 -80 -12 -7 -22 32 -18 66 4 25 15 49 25 49 3 0 0 -6 -6 -14z m149 -14
c0 -10 -13 -28 -30 -40 -24 -18 -30 -19 -30 -7 0 16 39 65 52 65 4 0 8 -8 8
-18z m180 -18 c0 -19 -5 -24 -24 -24 -26 0 -29 17 -7 44 17 20 31 12 31 -20z
m180 10 c0 -16 -46 -41 -57 -31 -9 9 38 58 48 51 5 -3 9 -12 9 -20z m81 -3 c5
-12 5 -20 0 -17 -5 3 -14 -1 -21 -9 -14 -17 -60 -20 -60 -4 0 5 5 7 10 4 6 -3
10 -1 10 6 0 17 31 50 43 46 6 -2 14 -13 18 -26z m-378 -53 c-2 -4 -28 -20
-57 -36 l-54 -29 -4 28 c-3 22 2 33 24 49 28 21 28 21 28 0 0 -11 5 -20 11
-20 6 0 8 9 4 21 -4 13 0 28 11 40 18 20 19 20 30 -13 6 -18 10 -36 7 -40z
m53 15 c-10 -10 -19 5 -10 18 6 11 8 11 12 0 2 -7 1 -15 -2 -18z m-287 -48 c1
-16 -1 -17 -9 -5 -5 8 -9 29 -9 45 1 29 1 29 9 5 4 -14 8 -34 9 -45z m110 -18
c1 -15 -7 -39 -16 -54 l-17 -26 -8 29 c-4 15 -4 31 0 34 4 3 13 16 20 29 l13
23 -25 -18 c-13 -11 -30 -30 -36 -43 -12 -27 -15 -26 -24 12 -6 24 -4 28 11
23 12 -4 26 5 43 29 24 32 25 32 32 12 3 -12 6 -35 7 -50z m-134 -30 c-2 -21
0 -35 4 -32 8 4 19 -44 24 -100 1 -11 5 -25 10 -32 9 -15 -2 -45 -15 -37 -5 3
-7 13 -4 21 4 9 1 22 -5 29 -6 8 -8 25 -5 40 5 17 3 23 -4 19 -6 -4 -11 7 -12
27 -3 62 -4 67 -11 74 -9 10 -9 69 0 78 12 11 23 -45 18 -87z m527 70 c7 -7
31 -14 53 -14 95 -2 152 -8 141 -16 -6 -5 3 -7 21 -5 18 3 30 2 28 -2 -2 -3
24 -12 57 -19 34 -7 101 -26 150 -42 49 -16 93 -27 98 -24 15 9 221 -65 300
-108 41 -22 98 -52 125 -66 28 -13 70 -41 95 -61 25 -20 65 -49 90 -65 84 -52
238 -225 200 -225 -4 0 -5 -10 -3 -22 5 -28 -40 -114 -57 -110 -7 2 -10 -3 -7
-11 3 -7 -5 -22 -18 -31 -13 -10 -22 -23 -19 -30 3 -9 -11 -13 -48 -15 -29 -1
-72 -6 -96 -12 -105 -23 -419 -17 -527 11 -22 6 -57 12 -78 14 -21 3 -44 9
-50 14 -7 6 -34 13 -62 17 -55 8 -198 56 -257 86 -20 10 -45 16 -55 13 -12 -4
-14 -3 -5 3 8 7 -6 18 -50 39 -34 16 -95 50 -135 76 -41 27 -77 47 -82 45 -5
-1 -10 3 -11 8 -1 6 -25 35 -54 65 -29 31 -60 69 -69 86 -28 54 -49 154 -44
213 7 85 27 125 84 158 44 26 55 28 141 27 51 -1 105 -5 120 -9 18 -4 24 -3
17 4 -5 5 -32 12 -60 14 l-50 3 52 2 c31 1 57 -3 65 -11z m-559 -42 c3 -19 4
-50 2 -69 -2 -20 0 -34 5 -31 8 5 22 -81 21 -133 -1 -18 3 -31 8 -28 5 3 11
-8 13 -24 3 -17 1 -30 -3 -30 -13 0 -40 105 -33 125 5 13 4 16 -4 11 -8 -5
-12 1 -13 16 -1 13 -2 41 -3 63 -2 22 -7 41 -11 42 -5 2 -8 -15 -6 -36 2 -40
-14 -65 -22 -34 -16 58 -16 75 3 117 23 55 35 58 43 11z m192 -70 c-28 -80
-11 -212 41 -304 28 -51 30 -58 8 -40 -25 20 -84 115 -94 149 -17 58 7 182 43
228 16 21 17 9 2 -33z m-128 3 c-3 -7 -5 -2 -5 12 0 14 2 19 5 13 2 -7 2 -19
0 -25z m53 4 c0 -9 -7 -26 -15 -36 -14 -19 -15 -18 -15 15 0 20 3 39 6 42 10
10 24 -2 24 -21z m-43 -54 c-3 -7 -5 -2 -5 12 0 14 2 19 5 13 2 -7 2 -19 0
-25z m48 -75 c0 -91 2 -101 28 -141 16 -24 26 -51 23 -59 -4 -9 8 -32 26 -55
25 -32 28 -38 11 -29 -12 6 -31 23 -43 38 -12 16 -27 28 -33 28 -6 0 -12 16
-13 35 l-2 35 24 -30 c30 -38 31 -29 2 22 -13 22 -28 38 -34 36 -6 -2 -11 6
-10 19 1 13 -1 38 -5 56 -4 18 -3 35 3 38 6 4 8 22 5 41 -6 34 0 63 12 63 3 0
6 -44 6 -97z m-127 -18 c1 -16 -2 -15 -14 8 -9 17 -12 36 -8 50 7 21 8 20 15
-8 4 -16 7 -39 7 -50z m89 43 c-3 -8 -6 -5 -6 6 -1 11 2 17 5 13 3 -3 4 -12 1
-19z m3 -97 c0 -10 -7 -22 -16 -25 -12 -5 -15 -2 -10 10 3 8 6 20 6 25 0 5 5
9 10 9 6 0 10 -9 10 -19z m0 -51 c0 -5 -4 -10 -10 -10 -5 0 -10 -4 -10 -10 0
-5 6 -10 14 -10 7 0 16 -10 19 -22 6 -21 5 -21 -19 3 -16 16 -22 31 -18 42 7
18 24 23 24 7z m201 -202 c6 -12 6 -18 -1 -18 -5 0 -10 6 -10 13 0 6 -14 25
-30 41 -17 15 -35 38 -41 50 -11 23 66 -58 82 -86z m4 62 c10 -11 14 -20 9
-20 -5 0 -15 9 -22 20 -7 11 -11 20 -9 20 2 0 12 -9 22 -20z m95 -116 c0 4 5
4 10 1 6 -4 8 -11 4 -16 -4 -6 -15 -2 -28 10 -12 12 -25 19 -28 16 -2 -3 -5 2
-5 10 0 12 6 10 24 -7 13 -12 23 -18 23 -14z m51 -31 c13 -16 12 -17 -3 -4
-17 13 -22 21 -14 21 2 0 10 -8 17 -17z m1589 -7 c0 -13 -20 -26 -40 -26 -4 0
-6 9 -3 20 6 22 43 28 43 6z m-52 -8 c-6 -18 -28 -21 -28 -4 0 9 7 16 16 16 9
0 14 -5 12 -12z m142 -7 c0 -9 -44 -41 -55 -41 -4 0 -3 5 1 11 4 8 0 8 -15 0
-17 -9 -21 -9 -21 2 0 13 41 34 73 36 9 1 17 -3 17 -8z m-103 -36 c-7 -17 -47
-21 -47 -5 0 11 41 31 49 24 2 -2 1 -10 -2 -19z m-57 -6 c-7 -11 -14 -18 -17
-15 -8 8 5 36 17 36 7 0 7 -6 0 -21z m100 -2 c0 -2 -11 -14 -26 -28 -22 -21
-24 -21 -18 -4 4 11 12 23 18 27 11 8 26 10 26 5z m-60 -37 c-6 -11 -18 -21
-28 -22 -9 -1 -24 -2 -32 -3 -8 0 -21 -4 -29 -9 -10 -7 -11 -4 -2 13 12 22 37
30 26 9 -4 -7 0 -6 7 3 12 14 32 24 61 28 4 0 3 -8 -3 -19z m-73 -57 c-9 -2
-15 -9 -12 -14 4 -5 4 -9 2 -9 -3 0 -22 -7 -43 -16 l-39 -16 34 31 c19 17 44
30 55 30 17 -1 18 -2 3 -6z"/>
<path d="M3756 6472 c5 -4 32 -25 59 -46 l50 -38 -50 46 c-27 25 -54 46 -59
46 -6 0 -6 -3 0 -8z"/>
<path d="M3070 6788 c128 -57 382 -185 421 -213 27 -19 49 -32 49 -27 0 15
-102 74 -279 161 -102 50 -192 91 -200 90 -10 0 -6 -5 9 -11z"/>
<path d="M1490 6761 c0 -5 7 -15 17 -22 15 -13 15 -12 4 9 -12 23 -21 28 -21
13z"/>
<path d="M3900 5824 c-66 -16 -206 -21 -315 -12 l-80 7 95 -15 c105 -16 265
-7 350 20 57 18 23 18 -50 0z"/>
<path d="M4575 5265 l-30 -14 29 6 c24 5 17 -5 -51 -68 -71 -67 -193 -146
-205 -134 -3 3 -11 -1 -18 -10 -16 -20 -11 -19 45 5 65 28 129 74 211 152 81
76 87 95 19 63z"/>
<path d="M4366 5154 c-22 -19 -35 -34 -30 -34 13 0 80 57 74 63 -3 3 -23 -10
-44 -29z"/>
<path d="M2300 5129 c166 -68 581 -178 845 -224 89 -16 473 -23 569 -10 23 2
136 16 251 30 116 14 219 30 230 36 16 7 14 8 -10 4 -288 -47 -437 -60 -715
-60 -259 0 -296 2 -400 23 -248 50 -609 149 -751 206 -36 14 -72 26 -80 25 -8
0 20 -14 61 -30z"/>
<path d="M1810 5900 c43 -38 140 -103 145 -98 4 4 -132 103 -165 121 -8 5 1
-6 20 -23z"/>
<path d="M2724 5475 c11 -8 26 -15 33 -15 22 0 14 8 -19 19 -30 10 -31 9 -14
-4z"/>
<path d="M2750 6005 c19 -19 38 -35 44 -35 5 0 -7 16 -28 35 -21 19 -41 35
-44 35 -3 0 9 -16 28 -35z"/>
<path d="M2869 5971 c13 -12 28 -21 35 -21 12 0 -5 14 -39 31 -16 8 -15 6 4
-10z"/>
<path d="M1329 4333 l-24 -28 28 24 c25 23 32 31 24 31 -2 0 -14 -12 -28 -27z"/>
<path d="M1233 4236 c-15 -19 -36 -50 -46 -68 -20 -37 -11 -26 49 55 40 54 39
63 -3 13z"/>
<path d="M1019 3963 l-34 -38 38 34 c34 33 42 41 34 41 -2 0 -19 -17 -38 -37z"/>
<path d="M3345 4463 c-295 -35 -405 -63 -405 -105 0 -11 -5 -15 -15 -12 -22 9
-19 -3 15 -53 17 -24 37 -60 45 -80 12 -29 18 -33 36 -28 18 6 21 4 16 -9 -8
-19 25 -40 40 -25 5 5 39 12 75 16 l66 6 7 -34 c7 -37 45 -138 76 -206 10 -24
19 -49 19 -58 0 -8 11 -22 25 -31 17 -11 25 -26 25 -44 0 -23 -6 -29 -41 -39
-22 -7 -72 -15 -110 -18 -59 -5 -69 -9 -69 -25 0 -10 10 -23 23 -28 14 -6 16
-9 6 -9 -9 -1 -24 -10 -34 -20 -17 -19 -15 -24 30 -118 55 -114 53 -112 65
-93 7 11 4 17 -8 21 -11 4 -5 8 21 13 20 4 37 11 37 17 0 11 67 42 125 58 88
25 245 41 349 36 62 -3 107 -1 111 4 3 6 -1 38 -9 73 -8 34 -13 66 -10 69 13
22 -83 38 -233 39 -16 0 -23 6 -23 20 0 10 -6 39 -14 62 -7 24 -26 88 -41 143
-15 55 -40 134 -56 176 -15 43 -25 79 -23 82 3 3 20 4 37 2 18 -2 71 -6 120
-9 85 -5 87 -5 87 17 0 12 -13 58 -29 102 l-29 80 -53 7 c-57 6 -203 7 -254 1z
m229 -31 c3 -5 -8 -6 -25 -4 -16 2 -29 6 -29 8 0 8 49 4 54 -4z m-610 -128 c3
-8 2 -12 -4 -9 -6 3 -10 10 -10 16 0 14 7 11 14 -7z m711 -14 c3 -6 -1 -7 -9
-4 -18 7 -21 14 -7 14 6 0 13 -4 16 -10z m-686 -40 c11 -24 11 -24 -3 -6 -9
11 -16 24 -16 30 0 12 5 7 19 -24z m450 -14 c-3 -3 -11 5 -18 17 -13 21 -12
21 5 5 10 -10 16 -20 13 -22z m-196 -15 c3 -14 1 -18 -9 -14 -8 3 -14 11 -14
19 0 21 17 17 23 -5z m-43 -10 c0 -12 -37 -21 -80 -20 l-35 1 40 13 c49 16 75
18 75 6z m80 -66 c0 -8 -6 -12 -14 -9 -11 4 -13 -1 -10 -18 2 -13 1 -16 -2 -8
-4 8 -11 23 -16 33 -7 14 -4 17 17 17 15 0 25 -6 25 -15z m32 -93 c10 -24 17
-49 15 -55 -4 -13 -48 96 -46 116 0 7 3 5 6 -3 3 -8 14 -34 25 -58z m52 -152
c5 -17 4 -20 -2 -10 -5 8 -13 26 -16 40 -5 17 -4 20 2 10 5 -8 13 -26 16 -40z
m-30 14 c3 -8 2 -12 -4 -9 -6 3 -10 10 -10 16 0 14 7 11 14 -7z m49 -171 c-7
-2 -21 -2 -30 0 -10 3 -4 5 12 5 17 0 24 -2 18 -5z m-128 -36 c-37 -22 -42
-22 -65 -8 -24 16 -24 16 25 22 28 3 57 6 65 7 8 1 -3 -9 -25 -21z m559 -33
c3 -8 2 -12 -4 -9 -6 3 -10 10 -10 16 0 14 7 11 14 -7z m-640 -19 c-4 -8 1
-33 10 -55 18 -46 19 -53 7 -46 -5 4 -16 27 -25 53 -13 37 -13 48 -4 55 18 11
18 10 12 -7z m246 -59 c0 -2 -13 -6 -29 -8 -17 -2 -28 -1 -25 4 5 8 54 12 54
4z"/>
<path d="M2735 4295 c-44 -19 -98 -48 -120 -64 -22 -16 -83 -50 -135 -76 -56
-28 -114 -65 -142 -92 l-47 -46 26 -51 c54 -108 104 -186 115 -180 7 4 8 2 4
-4 -9 -14 12 -55 24 -47 5 3 12 0 16 -6 5 -8 3 -9 -6 -4 -8 5 -11 3 -8 -6 3
-8 10 -14 15 -14 6 0 15 -4 20 -9 5 -5 2 -6 -6 -1 -9 5 -12 3 -9 -6 3 -8 10
-14 18 -14 7 0 19 -11 28 -25 l14 -25 -21 25 c-24 30 -28 20 -5 -15 9 -14 20
-23 24 -20 4 3 14 -3 21 -13 13 -15 12 -16 -3 -3 -24 18 -23 6 3 -30 11 -16
24 -27 29 -24 5 3 12 0 16 -6 4 -8 3 -9 -4 -5 -7 4 -12 3 -12 -3 0 -10 19 -26
32 -26 3 0 10 -4 15 -9 5 -5 3 -6 -4 -2 -7 4 -13 3 -13 -3 0 -10 19 -26 32
-26 3 0 10 -4 15 -9 5 -5 3 -6 -4 -2 -21 12 -15 -4 16 -43 16 -20 45 -63 65
-96 56 -94 49 -88 88 -72 35 15 126 77 127 88 1 3 -25 42 -56 87 -32 45 -94
137 -137 206 -44 69 -84 127 -90 129 -13 5 -17 1 69 59 39 26 82 52 98 57 15
6 27 15 27 20 0 5 -15 42 -32 80 -34 72 -53 86 -78 56 -6 -8 -44 -33 -82 -55
-55 -31 -74 -38 -84 -29 -8 6 -14 18 -14 25 0 19 99 82 185 117 100 40 175 78
175 88 0 4 -6 12 -13 16 -7 4 -21 25 -32 46 -11 22 -27 44 -36 50 -8 7 -18 20
-22 30 -8 23 -9 22 -102 -18z m90 -1025 c-3 -5 -10 -10 -16 -10 -5 0 -9 5 -9
10 0 6 7 10 16 10 8 0 12 -4 9 -10z"/>
<path d="M1856 4017 c-28 -24 -36 -36 -27 -41 13 -8 26 -1 26 15 0 5 14 20 30
34 17 13 26 24 20 24 -5 1 -28 -14 -49 -32z"/>
<path d="M1765 3968 c-35 -36 -36 -38 -10 -21 36 25 72 63 59 63 -6 0 -28 -19
-49 -42z"/>
<path d="M1975 3845 c-16 -13 -41 -35 -55 -48 -14 -13 -55 -45 -92 -71 -38
-26 -68 -50 -69 -54 -9 -64 -6 -89 21 -142 16 -31 40 -70 53 -86 13 -16 26
-36 29 -44 6 -18 143 -203 199 -270 91 -109 126 -158 133 -183 8 -34 70 -67
125 -67 22 0 41 -5 43 -12 6 -17 115 66 130 97 6 13 24 29 41 35 39 13 97 57
97 74 0 7 -9 21 -20 31 -11 10 -20 22 -20 27 0 8 -36 64 -50 78 -3 3 -23 41
-44 85 -21 44 -49 91 -61 105 -12 14 -39 54 -60 90 -21 36 -48 81 -60 100 -11
19 -28 51 -38 70 -9 19 -29 49 -44 66 -15 16 -41 49 -56 73 -48 72 -143 94
-202 46z m174 -292 c40 -65 92 -145 115 -179 37 -52 72 -124 61 -124 -1 0 -26
35 -55 78 -156 234 -250 354 -250 316 0 -3 17 -27 39 -53 21 -25 50 -64 64
-87 14 -22 31 -47 39 -55 7 -8 22 -27 32 -44 10 -16 50 -73 87 -126 38 -53 69
-101 69 -106 0 -6 12 -23 27 -38 l28 -27 -24 -19 c-32 -26 -53 -24 -74 9 -9
15 -53 83 -96 152 -44 69 -91 139 -105 156 -14 18 -26 35 -26 39 0 4 -29 49
-65 100 l-64 94 57 19 c31 11 60 18 63 16 3 -2 38 -56 78 -121z m-145 -27 c21
-36 46 -72 57 -82 10 -9 19 -21 19 -26 0 -5 34 -59 75 -120 41 -61 72 -114 69
-117 -6 -6 -43 38 -44 54 -1 6 -19 33 -41 60 -47 60 -175 248 -195 286 -39 76
10 30 60 -55z m-110 -118 l19 -33 -22 20 c-13 11 -32 38 -42 60 l-20 40 23
-27 c13 -15 32 -42 42 -60z m84 -112 c17 -28 41 -67 53 -86 13 -19 18 -30 12
-25 -17 17 -133 172 -133 179 0 18 41 -23 68 -68z m322 -221 c0 -3 -11 7 -25
23 -14 17 -25 33 -25 37 0 3 11 -7 25 -23 14 -17 25 -33 25 -37z"/>
<path d="M1507 3435 c-19 -25 -64 -77 -101 -116 -36 -39 -66 -79 -66 -89 0
-10 -6 -23 -14 -29 -19 -16 -40 -133 -32 -187 3 -24 12 -58 21 -74 8 -16 15
-45 15 -65 0 -19 5 -35 11 -35 5 0 16 -15 24 -34 8 -18 57 -84 110 -147 52
-63 99 -118 104 -124 34 -41 138 -127 167 -140 76 -31 145 -12 184 50 12 19
26 35 31 35 8 0 76 67 192 192 l28 30 -33 55 c-42 70 -148 151 -148 113 0 -5
-13 -16 -28 -24 -19 -10 -32 -28 -41 -55 -13 -45 -66 -102 -111 -121 -97 -40
-215 75 -250 245 -14 66 -6 179 14 209 28 43 69 76 95 76 14 0 32 4 40 9 12 8
13 12 1 25 -11 14 -10 16 4 10 26 -10 19 10 -31 88 -27 40 -54 82 -61 93 -7
11 -15 28 -18 38 -4 11 -17 17 -40 17 -27 0 -39 -8 -67 -45z m43 -5 c0 -5 -5
-10 -11 -10 -5 0 -7 5 -4 10 3 6 8 10 11 10 2 0 4 -4 4 -10z m108 -194 c-2 -1
-10 -7 -19 -14 -14 -10 -17 -9 -21 6 -4 15 -1 18 19 14 13 -2 23 -5 21 -6z"/>
<path d="M4340 3291 c0 -5 5 -13 10 -16 6 -3 10 -2 10 4 0 5 -4 13 -10 16 -5
3 -10 2 -10 -4z"/>
<path d="M4000 3232 c0 -10 37 -45 60 -57 8 -4 -1 8 -19 28 -37 39 -41 42 -41
29z"/>
<path d="M4250 3225 c1 -14 38 -61 43 -55 3 3 -6 19 -19 35 -13 17 -24 26 -24
20z"/>
<path d="M3620 3142 c6 -13 14 -21 18 -18 3 4 -2 14 -12 24 -18 16 -18 16 -6
-6z"/>
<path d="M4756 2231 c-9 -14 39 -84 59 -87 20 -3 19 2 -12 44 -39 54 -40 55
-47 43z"/>
<path d="M3260 3050 c6 -11 16 -20 22 -20 6 0 3 9 -7 20 -10 11 -20 20 -22 20
-2 0 1 -9 7 -20z"/>
<path d="M3196 3012 c-3 -4 4 -9 15 -9 23 -2 25 3 4 10 -8 4 -16 3 -19 -1z"/>
<path d="M3040 2975 c0 -5 9 -21 20 -35 11 -14 20 -20 20 -15 0 6 -9 21 -20
35 -11 14 -20 21 -20 15z"/>
<path d="M4900 2345 c0 -5 5 -17 10 -25 5 -8 10 -10 10 -5 0 6 -5 17 -10 25
-5 8 -10 11 -10 5z"/>
<path d="M4940 2271 c0 -5 7 -15 17 -22 15 -13 15 -12 4 9 -12 23 -21 28 -21
13z"/>
<path d="M4675 1804 c-11 -2 -45 -9 -75 -15 -30 -6 -121 -28 -202 -49 -122
-33 -167 -51 -275 -108 -171 -91 -398 -249 -501 -347 -235 -224 -483 -585
-529 -771 -19 -79 -23 -308 -6 -325 8 -8 9 4 6 38 l-4 48 17 -30 c30 -54 125
-138 140 -123 2 3 -18 19 -45 35 -31 20 -59 48 -77 79 -27 45 -29 56 -28 149
1 107 29 217 62 243 9 7 11 12 4 12 -18 0 26 83 114 212 119 176 273 358 304
358 11 0 12 2 2 8 -24 16 103 121 328 273 115 78 318 191 337 188 23 -4 43 2
38 11 -3 5 0 7 7 5 8 -3 50 6 93 20 175 55 266 68 425 61 214 -10 222 -11 257
-30 42 -21 49 -36 57 -121 7 -81 23 -145 36 -145 5 0 2 16 -6 36 -8 19 -16 69
-18 110 -3 66 -7 79 -30 103 -32 34 -101 57 -206 71 -74 9 -187 11 -225 4z
m133 -11 c-21 -2 -55 -2 -75 0 -21 2 -4 4 37 4 41 0 58 -2 38 -4z m120 -10
c-10 -2 -26 -2 -35 0 -10 3 -2 5 17 5 19 0 27 -2 18 -5z m59 -9 c-3 -3 -12 -4
-19 -1 -8 3 -5 6 6 6 11 1 17 -2 13 -5z m-1900 -1486 c-3 -8 -6 -5 -6 6 -1 11
2 17 5 13 3 -3 4 -12 1 -19z"/>
<path d="M5240 1781 c0 -5 5 -13 10 -16 6 -3 10 -2 10 4 0 5 -4 13 -10 16 -5
3 -10 2 -10 -4z"/>
<path d="M4537 1689 c-142 -29 -258 -63 -339 -98 -68 -29 -256 -138 -295 -171
-7 -6 -32 -24 -56 -40 -24 -16 -63 -47 -87 -70 -23 -22 -46 -40 -49 -40 -11 0
-209 -199 -239 -239 -15 -20 -44 -56 -64 -80 -21 -24 -38 -48 -38 -53 0 -5
-11 -20 -24 -34 -33 -36 -109 -167 -141 -244 -56 -132 -75 -240 -55 -309 12
-42 68 -116 99 -131 39 -18 37 -2 -5 34 -34 31 -36 34 -14 29 14 -4 39 -15 55
-25 32 -19 55 -23 55 -10 0 4 -13 16 -30 25 -16 10 -38 30 -49 45 -18 27 -19
28 -1 28 10 0 18 -5 17 -11 -1 -5 6 -9 15 -9 10 1 16 -2 13 -5 -6 -10 56 -39
108 -51 44 -9 87 -4 87 11 0 5 -10 5 -22 1 -13 -5 -36 -6 -53 -3 -20 4 24 16
149 39 172 32 293 69 289 89 -1 8 93 55 117 58 3 1 51 24 108 53 56 29 102 50
102 47 0 -3 19 10 43 28 23 17 91 61 151 97 257 154 483 357 569 510 47 84 89
198 100 274 10 63 -8 27 -22 -44 -31 -157 -113 -292 -269 -442 -146 -139 -262
-220 -571 -400 -141 -83 -113 -47 43 53 468 300 597 405 690 564 65 112 84
168 96 289 6 59 13 114 17 124 4 12 3 14 -5 7 -6 -5 -16 -59 -22 -119 -14
-134 -32 -190 -96 -296 -77 -129 -281 -309 -501 -442 -48 -29 -153 -96 -234
-150 -209 -138 -358 -211 -578 -280 -19 -6 -79 -13 -132 -15 -82 -4 -104 -2
-141 15 -59 28 -99 63 -101 89 -1 13 -5 23 -10 23 -6 0 -7 25 -3 58 4 31 8 67
9 79 1 12 4 19 7 17 2 -3 14 14 26 38 l22 43 -5 -67 c-3 -38 -2 -68 3 -68 5 0
8 20 6 44 -3 32 4 61 23 105 15 33 31 58 36 55 4 -2 13 14 19 37 25 92 190
317 300 410 27 23 47 45 45 49 -13 22 218 204 303 239 18 7 29 18 25 24 -3 5
-2 7 4 4 6 -4 80 25 166 63 143 64 340 127 369 118 6 -2 -64 -30 -157 -62
-207 -71 -351 -133 -461 -200 -92 -56 -238 -165 -230 -173 2 -2 29 16 60 41
107 87 274 190 311 191 11 0 58 19 105 43 47 23 155 67 240 96 140 49 168 55
290 65 74 6 153 13 174 16 29 3 36 1 25 -6 -10 -8 -7 -9 13 -6 15 2 25 0 22
-4 -3 -5 0 -9 5 -9 6 0 28 -8 50 -17 32 -14 40 -23 45 -52 3 -20 9 -47 13 -61
l6 -25 -23 20 -22 20 22 -38 c21 -35 22 -46 16 -119 -8 -96 -46 -184 -128
-298 -51 -71 -200 -225 -236 -244 -9 -5 -21 -14 -27 -20 -20 -23 -137 -106
-150 -106 -7 0 -32 -17 -56 -38 -52 -45 -122 -93 -163 -111 -17 -7 -46 -25
-65 -40 -55 -43 -202 -128 -288 -168 -43 -19 -115 -52 -159 -73 -69 -32 -114
-48 -151 -52 -5 -1 -28 -8 -53 -16 -76 -23 -102 -27 -195 -27 -61 0 -93 -4
-98 -12 -4 -7 -15 -13 -22 -13 -8 0 -15 -5 -15 -11 0 -7 7 -8 18 -4 9 5 60 9
112 10 123 2 296 48 438 116 56 27 105 49 108 49 15 0 144 67 186 97 26 18 51
33 54 33 4 0 31 18 59 39 55 42 123 81 140 81 5 0 26 14 45 31 57 49 97 80
132 99 18 9 49 26 69 37 64 34 315 259 338 302 14 25 13 25 -5 12 -10 -8 -5
-1 12 16 18 16 35 40 39 53 4 13 14 30 21 38 8 7 12 17 9 22 -3 5 0 10 6 12
12 4 67 198 76 264 9 72 -34 184 -71 184 -7 0 -21 10 -32 21 l-19 22 32 -17
c18 -9 36 -16 40 -16 4 1 -12 12 -37 25 -104 54 -287 59 -503 14z m288 -9
c-38 -4 -97 -7 -130 -7 l-60 0 50 7 c28 4 86 7 130 7 l80 0 -70 -7z m-506 -74
c-11 -10 -229 -104 -229 -98 1 8 67 41 155 77 55 22 84 31 74 21z m-695 -458
c-82 -87 -106 -115 -166 -195 -34 -46 -64 -81 -66 -78 -7 6 24 52 82 120 61
72 177 195 185 195 3 0 -13 -19 -35 -42z m-277 -380 c-17 -32 -35 -58 -39 -58
-4 0 -21 -27 -39 -60 -17 -33 -35 -60 -40 -60 -14 0 28 88 66 137 19 25 32 50
29 54 -3 5 0 8 8 7 7 -2 14 4 14 12 3 25 4 27 19 27 11 0 6 -15 -18 -59z m-54
-113 c-3 -9 -8 -14 -10 -11 -3 3 -2 9 2 15 9 16 15 13 8 -4z m-80 -125 c-3
-12 -8 -19 -11 -16 -5 6 5 36 12 36 2 0 2 -9 -1 -20z m872 -40 c-3 -5 -11 -10
-16 -10 -6 0 -7 5 -4 10 3 6 11 10 16 10 6 0 7 -4 4 -10z m-874 -182 c7 -13
18 -29 26 -36 17 -18 13 -23 -14 -16 -12 3 -29 25 -43 54 -19 40 -21 56 -15
97 l8 48 13 -63 c8 -34 19 -72 25 -84z m609 43 c-34 -18 -100 -38 -90 -28 7 7
102 45 115 46 6 0 -6 -8 -25 -18z"/>
<path d="M3338 233 c7 -3 16 -2 19 1 4 3 -2 6 -13 5 -11 0 -14 -3 -6 -6z"/>
<path d="M1930 1614 c0 -6 7 -19 15 -30 8 -10 14 -14 14 -9 0 6 -6 19 -14 29
-8 11 -15 15 -15 10z"/>
</g>
</svg>
